<svg width="80" height="79" viewBox="0 0 80 79" fill="none" xmlns="http://www.w3.org/2000/svg">
<path d="M79.95 39.5C79.95 61.3152 62.2653 79 40.45 79C18.6348 79 0.950012 61.3152 0.950012 39.5C0.950012 17.6848 18.6348 0 40.45 0C62.2653 0 79.95 17.6848 79.95 39.5Z" fill="#7289DA"/>
<path d="M54.0606 21.7251H26.8394C24.5439 21.7251 22.675 23.5421 22.675 25.7936V52.4956C22.675 54.7471 24.5439 56.5641 26.8394 56.5641H49.8758L48.7992 52.9103L51.3994 55.2606L53.8574 57.4726L58.225 61.2251V25.7936C58.225 23.5421 56.3561 21.7251 54.0606 21.7251ZM46.2192 47.5186C46.2192 47.5186 45.4879 46.6693 44.8785 45.9188C47.5397 45.1881 48.5554 43.5686 48.5554 43.5686C47.7225 44.1018 46.9302 44.4771 46.2192 44.7338C45.2035 45.1486 44.2284 45.4251 43.2737 45.5831C41.3235 45.9386 39.5358 45.8398 38.0123 45.5633C36.8544 45.3461 35.859 45.0301 35.0261 44.7141C34.5588 44.5363 34.051 44.3191 33.5431 44.0426C33.4822 44.0031 33.4212 43.9833 33.3603 43.9438C33.3197 43.9241 33.2994 43.9043 33.279 43.8846C32.9134 43.6871 32.7102 43.5488 32.7102 43.5488C32.7102 43.5488 33.6853 45.1288 36.2652 45.8793C35.6558 46.6298 34.9042 47.5186 34.9042 47.5186C30.4147 47.3803 28.7083 44.5166 28.7083 44.5166C28.7083 38.1571 31.6336 33.0023 31.6336 33.0023C34.5588 30.8693 37.3419 30.9286 37.3419 30.9286L37.545 31.1656C33.8885 32.1926 32.2024 33.7528 32.2024 33.7528C32.2024 33.7528 32.6493 33.5158 33.4009 33.1801C35.5746 32.2518 37.3013 31.9951 38.0123 31.9358C38.1342 31.9161 38.2357 31.8963 38.3576 31.8963C39.5968 31.7383 40.9985 31.6988 42.4611 31.8568C44.391 32.0741 46.463 32.6271 48.5757 33.7528C48.5757 33.7528 46.9709 32.2716 43.5174 31.2446L43.8018 30.9286C43.8018 30.9286 46.5849 30.8693 49.5102 33.0023C49.5102 33.0023 52.4354 38.1571 52.4354 44.5166C52.4354 44.5166 50.7087 47.3803 46.2192 47.5186ZM36.7731 38.2953C35.6152 38.2953 34.701 39.2828 34.701 40.4876C34.701 41.6923 35.6355 42.6798 36.7731 42.6798C37.931 42.6798 38.8452 41.6923 38.8452 40.4876C38.8655 39.2828 37.931 38.2953 36.7731 38.2953ZM44.1878 38.2953C43.0299 38.2953 42.1158 39.2828 42.1158 40.4876C42.1158 41.6923 43.0502 42.6798 44.1878 42.6798C45.3457 42.6798 46.2599 41.6923 46.2599 40.4876C46.2599 39.2828 45.3457 38.2953 44.1878 38.2953Z" fill="white"/>
</svg>
