<svg width="80" height="79" viewBox="0 0 80 79" fill="none" xmlns="http://www.w3.org/2000/svg">
<circle cx="40.15" cy="39.5" r="39.5" fill="#2F89CE"/>
<path d="M19.1176 40.2388L28.1989 43.625L31.739 55.015C31.8929 55.7846 32.8164 55.9385 33.4321 55.4767L38.5114 51.3209C38.9732 50.8592 39.7428 50.8592 40.3584 51.3209L49.4396 57.9394C50.0553 58.4012 50.9788 58.0933 51.1328 57.3237L57.9052 25.0008C58.0591 24.2312 57.2895 23.4616 56.5199 23.7695L19.1176 38.2378C18.1941 38.5457 18.1941 39.9309 19.1176 40.2388ZM31.2772 41.9319L49.1318 31.0036C49.4396 30.8497 49.7475 31.3115 49.4396 31.4654L34.8174 45.1642C34.3556 45.6259 33.8938 46.2416 33.8938 47.0112L33.4321 50.7052C33.4321 51.167 32.6625 51.3209 32.5086 50.7052L30.6615 43.9328C30.1998 43.1632 30.5077 42.2397 31.2772 41.9319Z" fill="white"/>
</svg>
