<svg width="79" height="79" viewBox="0 0 79 79" fill="none" xmlns="http://www.w3.org/2000/svg">
<circle cx="39.5" cy="39.5" r="39.5" fill="#7294C7"/>
<path d="M58.8672 49.6027C58.8672 49.4387 58.7032 49.4387 58.7032 49.2747C58.0473 47.963 56.5716 46.3233 54.604 44.5196C53.6201 43.6997 53.1282 43.0438 52.8003 42.7159C52.3084 42.06 52.3084 41.5681 52.4724 40.9122C52.6363 40.4203 53.2922 39.6005 54.44 38.1247C55.0959 37.3049 55.4238 36.813 55.9157 36.3211C58.3752 33.0417 59.523 30.91 59.1951 29.9262L59.0312 29.7623C58.8672 29.5983 58.7032 29.4343 58.3752 29.4343C58.0473 29.2704 57.5554 29.2704 57.0635 29.4343H50.8327C50.6687 29.4343 50.6687 29.4343 50.3407 29.4343C50.1767 29.4343 50.0128 29.4343 50.0128 29.4343H49.8488H49.6848L49.5209 29.5983C49.3569 29.7623 49.3569 29.7622 49.3569 29.9262C48.701 31.7299 47.8812 33.2056 47.0613 34.8453C46.5694 35.6652 46.0775 36.485 45.5856 37.1409C45.0937 37.7968 44.7657 38.2887 44.4378 38.6166C44.1098 38.9446 43.7819 39.1086 43.6179 39.4365C43.454 39.6005 43.126 39.7644 43.126 39.6005C42.9621 39.6005 42.7981 39.6005 42.7981 39.4365C42.6341 39.2725 42.4702 39.1086 42.3062 38.9446C42.1422 38.7806 42.1422 38.4527 41.9782 38.1247C41.9782 37.7968 41.9782 37.4688 41.9782 37.3049C41.9782 37.1409 41.9782 36.649 41.9782 36.3211C41.9782 35.8292 41.9782 35.5012 41.9782 35.3372C41.9782 34.8453 41.9782 34.1895 41.9782 33.5336C41.9782 32.8777 41.9782 32.3858 41.9782 32.0578C41.9782 31.7299 41.9782 31.238 41.9782 30.91C41.9782 30.4181 41.9782 30.0902 41.9782 29.9262C41.9782 29.7622 41.8143 29.4343 41.8143 29.2703C41.6503 29.1064 41.4863 28.9424 41.3223 28.7784C41.1584 28.6145 40.8304 28.6145 40.6665 28.4505C39.8466 28.2865 38.8628 28.1226 37.715 28.1226C35.0915 28.1226 33.2878 28.2865 32.6319 28.6145C32.304 28.7784 31.9761 28.9424 31.8121 29.2703C31.4842 29.5983 31.4841 29.7623 31.6481 29.7623C32.468 29.9262 33.1239 30.2542 33.4518 30.7461L33.6158 31.074C33.7797 31.238 33.7797 31.5659 33.9437 32.0578C34.1077 32.5497 34.1077 33.0417 34.1077 33.6975C34.1077 34.6814 34.1077 35.6652 34.1077 36.3211C34.1077 37.1409 33.9437 37.6328 33.9437 38.1247C33.9437 38.6166 33.7797 38.9446 33.6158 39.1086C33.4518 39.4365 33.4518 39.6005 33.2878 39.6005C33.2878 39.6005 33.2878 39.7644 33.1238 39.7644C32.9599 39.7644 32.7959 39.9284 32.468 39.9284C32.304 39.9284 31.9761 39.7644 31.8121 39.6005C31.4842 39.4365 31.1562 39.1086 30.9922 38.7806C30.6643 38.4527 30.3364 37.9608 30.0084 37.3049C29.6805 36.649 29.1885 35.9931 28.8606 35.0093L28.5327 34.3534C28.3687 34.0255 28.0408 33.3696 27.7128 32.5498C27.3849 31.7299 27.0569 31.074 26.729 30.2542C26.565 29.9262 26.4011 29.7623 26.2371 29.5983H26.0731C26.0731 29.5983 25.9091 29.4343 25.7452 29.4343C25.5812 29.4343 25.4173 29.2703 25.2533 29.2703H19.3503C18.6945 29.2703 18.3665 29.4343 18.2026 29.5983L18.0386 29.7623C18.0386 29.7623 18.0386 29.9262 18.0386 30.0902C18.0386 30.2542 18.0386 30.4181 18.2026 30.7461C19.0224 32.7137 20.0062 34.6814 20.99 36.649C21.9739 38.4527 22.9577 40.0924 23.6136 41.2402C24.4334 42.388 25.0893 43.5358 25.9092 44.5196C26.729 45.5034 27.2209 46.1593 27.3849 46.4872C27.7128 46.8152 27.8768 46.9791 28.0407 47.1431L28.5327 47.635C28.8606 47.963 29.3525 48.4549 30.0084 48.9468C30.6643 49.4387 31.4841 49.9306 32.304 50.4225C33.1238 50.9144 34.1077 51.2424 35.0915 51.5703C36.2393 51.8983 37.2231 52.0622 38.2069 51.8982H40.6665C41.1584 51.8982 41.4863 51.7343 41.8143 51.4063L41.9782 51.2424C41.9782 51.0784 42.1422 51.0784 42.1422 50.9144C42.1422 50.7504 42.1422 50.5865 42.1422 50.2585C42.1422 49.6027 42.1422 49.1108 42.3062 48.6188C42.4702 48.1269 42.4702 47.799 42.6341 47.4711C42.7981 47.1431 42.9621 46.9791 43.126 46.8152C43.29 46.6512 43.454 46.4872 43.454 46.4872H43.6179C43.9459 46.3233 44.4378 46.4872 44.7657 46.8152C45.2576 47.1431 45.7495 47.635 46.0775 48.1269C46.4054 48.6188 46.8974 49.1107 47.5532 49.7666C48.2091 50.4225 48.701 50.9144 49.029 51.0784L49.5209 51.4063C49.8488 51.5703 50.1768 51.7343 50.6687 51.8982C51.1606 52.0622 51.4885 52.0622 51.8164 52.0622L57.3915 51.8982C57.8834 51.8982 58.3753 51.7343 58.7032 51.5703C59.0311 51.4063 59.1951 51.2424 59.1951 50.9144C59.1951 50.7504 59.1951 50.4225 59.1951 50.2585C58.8672 49.9306 58.8672 49.7666 58.8672 49.6027Z" fill="white"/>
</svg>
