<svg width="80" height="79" viewBox="0 0 80 79" fill="none" xmlns="http://www.w3.org/2000/svg">
<circle cx="39.8" cy="39.5" r="39.5" fill="#F40000"/>
<path d="M57.0084 37.3533C57.0084 36.5873 56.8808 35.6935 56.8808 34.6721C56.7531 33.6507 56.6254 32.6293 56.4977 31.7356C56.2424 30.7141 55.8593 29.9481 55.0933 29.3097C54.4549 28.6713 53.5612 28.2883 52.6674 28.1606C49.7309 27.7776 45.3899 27.6499 39.5167 27.6499C33.6436 27.6499 29.1749 27.7776 26.366 28.1606C25.4723 28.2883 24.5785 28.6713 23.9401 29.3097C23.3018 29.9481 22.791 30.7141 22.5357 31.7356C22.2803 32.6293 22.1527 33.523 22.1527 34.6721C22.025 35.6935 22.025 36.5873 22.025 37.3533C22.025 38.1194 22.025 39.0131 22.025 40.2899C22.025 41.5667 22.025 42.5881 22.025 43.2265C22.025 43.9925 22.1527 44.8863 22.1527 45.9077C22.2804 46.9291 22.408 47.9505 22.5357 48.8442C22.791 49.8657 23.1741 50.6317 23.9401 51.2701C24.5785 51.9085 25.4723 52.2915 26.366 52.4192C29.3026 52.8022 33.6436 52.9299 39.5167 52.9299C45.3899 52.9299 49.8585 52.8022 52.6674 52.4192C53.5612 52.2915 54.4549 51.9085 55.0933 51.2701C55.7317 50.6317 56.2424 49.8657 56.4977 48.8442C56.7531 47.9505 56.8808 47.0568 56.8808 45.9077C57.0085 44.8863 57.0084 43.9925 57.0084 43.2265C57.0084 42.4604 57.0084 41.5667 57.0084 40.2899C57.0084 39.0131 57.0084 37.9917 57.0084 37.3533ZM46.2836 41.3113L36.1971 47.5675C36.0694 47.6951 35.8141 47.8228 35.5587 47.8228C35.3034 47.8228 35.1757 47.8228 34.9204 47.6952C34.5373 47.4398 34.282 47.0568 34.282 46.5461V33.9061C34.282 33.3953 34.5373 33.0123 34.9204 32.757C35.3034 32.5016 35.8141 32.5016 36.1971 32.757L46.2836 39.0131C46.6666 39.2685 46.922 39.6515 46.922 40.0345C46.922 40.4176 46.6666 41.056 46.2836 41.3113Z" fill="white"/>
</svg>
