<svg width="363" height="389" viewBox="0 0 363 389" fill="none" xmlns="http://www.w3.org/2000/svg">
<path d="M252.891 160.5V165H230.016V161.133L241.125 149.016C242.344 147.641 243.305 146.453 244.008 145.453C244.711 144.453 245.203 143.555 245.484 142.758C245.781 141.945 245.93 141.156 245.93 140.391C245.93 139.312 245.727 138.367 245.32 137.555C244.93 136.727 244.352 136.078 243.586 135.609C242.82 135.125 241.891 134.883 240.797 134.883C239.531 134.883 238.469 135.156 237.609 135.703C236.75 136.25 236.102 137.008 235.664 137.977C235.227 138.93 235.008 140.023 235.008 141.258H229.359C229.359 139.273 229.812 137.461 230.719 135.82C231.625 134.164 232.938 132.852 234.656 131.883C236.375 130.898 238.445 130.406 240.867 130.406C243.148 130.406 245.086 130.789 246.68 131.555C248.273 132.32 249.484 133.406 250.312 134.812C251.156 136.219 251.578 137.883 251.578 139.805C251.578 140.867 251.406 141.922 251.062 142.969C250.719 144.016 250.227 145.062 249.586 146.109C248.961 147.141 248.219 148.18 247.359 149.227C246.5 150.258 245.555 151.305 244.523 152.367L237.141 160.5H252.891ZM279.539 145.078V150.656C279.539 153.328 279.273 155.609 278.742 157.5C278.227 159.375 277.477 160.898 276.492 162.07C275.508 163.242 274.328 164.102 272.953 164.648C271.594 165.195 270.07 165.469 268.383 165.469C267.039 165.469 265.789 165.297 264.633 164.953C263.492 164.609 262.461 164.07 261.539 163.336C260.617 162.602 259.828 161.656 259.172 160.5C258.531 159.328 258.031 157.93 257.672 156.305C257.328 154.68 257.156 152.797 257.156 150.656V145.078C257.156 142.391 257.422 140.125 257.953 138.281C258.484 136.422 259.242 134.914 260.227 133.758C261.211 132.586 262.383 131.734 263.742 131.203C265.117 130.672 266.648 130.406 268.336 130.406C269.695 130.406 270.945 130.578 272.086 130.922C273.242 131.25 274.273 131.773 275.18 132.492C276.102 133.211 276.883 134.148 277.523 135.305C278.18 136.445 278.68 137.828 279.023 139.453C279.367 141.062 279.539 142.938 279.539 145.078ZM273.891 151.453V144.234C273.891 142.875 273.812 141.68 273.656 140.648C273.5 139.602 273.266 138.719 272.953 138C272.656 137.266 272.281 136.672 271.828 136.219C271.375 135.75 270.859 135.414 270.281 135.211C269.703 134.992 269.055 134.883 268.336 134.883C267.461 134.883 266.68 135.055 265.992 135.398C265.305 135.727 264.727 136.258 264.258 136.992C263.789 137.727 263.43 138.695 263.18 139.898C262.945 141.086 262.828 142.531 262.828 144.234V151.453C262.828 152.828 262.906 154.039 263.062 155.086C263.219 156.133 263.453 157.031 263.766 157.781C264.078 158.516 264.453 159.125 264.891 159.609C265.344 160.078 265.859 160.422 266.438 160.641C267.031 160.859 267.68 160.969 268.383 160.969C269.273 160.969 270.062 160.797 270.75 160.453C271.438 160.109 272.016 159.562 272.484 158.812C272.953 158.047 273.305 157.055 273.539 155.836C273.773 154.617 273.891 153.156 273.891 151.453ZM306.82 145.078V150.656C306.82 153.328 306.555 155.609 306.023 157.5C305.508 159.375 304.758 160.898 303.773 162.07C302.789 163.242 301.609 164.102 300.234 164.648C298.875 165.195 297.352 165.469 295.664 165.469C294.32 165.469 293.07 165.297 291.914 164.953C290.773 164.609 289.742 164.07 288.82 163.336C287.898 162.602 287.109 161.656 286.453 160.5C285.812 159.328 285.312 157.93 284.953 156.305C284.609 154.68 284.438 152.797 284.438 150.656V145.078C284.438 142.391 284.703 140.125 285.234 138.281C285.766 136.422 286.523 134.914 287.508 133.758C288.492 132.586 289.664 131.734 291.023 131.203C292.398 130.672 293.93 130.406 295.617 130.406C296.977 130.406 298.227 130.578 299.367 130.922C300.523 131.25 301.555 131.773 302.461 132.492C303.383 133.211 304.164 134.148 304.805 135.305C305.461 136.445 305.961 137.828 306.305 139.453C306.648 141.062 306.82 142.938 306.82 145.078ZM301.172 151.453V144.234C301.172 142.875 301.094 141.68 300.938 140.648C300.781 139.602 300.547 138.719 300.234 138C299.938 137.266 299.562 136.672 299.109 136.219C298.656 135.75 298.141 135.414 297.562 135.211C296.984 134.992 296.336 134.883 295.617 134.883C294.742 134.883 293.961 135.055 293.273 135.398C292.586 135.727 292.008 136.258 291.539 136.992C291.07 137.727 290.711 138.695 290.461 139.898C290.227 141.086 290.109 142.531 290.109 144.234V151.453C290.109 152.828 290.188 154.039 290.344 155.086C290.5 156.133 290.734 157.031 291.047 157.781C291.359 158.516 291.734 159.125 292.172 159.609C292.625 160.078 293.141 160.422 293.719 160.641C294.312 160.859 294.961 160.969 295.664 160.969C296.555 160.969 297.344 160.797 298.031 160.453C298.719 160.109 299.297 159.562 299.766 158.812C300.234 158.047 300.586 157.055 300.82 155.836C301.055 154.617 301.172 153.156 301.172 151.453ZM334.102 145.078V150.656C334.102 153.328 333.836 155.609 333.305 157.5C332.789 159.375 332.039 160.898 331.055 162.07C330.07 163.242 328.891 164.102 327.516 164.648C326.156 165.195 324.633 165.469 322.945 165.469C321.602 165.469 320.352 165.297 319.195 164.953C318.055 164.609 317.023 164.07 316.102 163.336C315.18 162.602 314.391 161.656 313.734 160.5C313.094 159.328 312.594 157.93 312.234 156.305C311.891 154.68 311.719 152.797 311.719 150.656V145.078C311.719 142.391 311.984 140.125 312.516 138.281C313.047 136.422 313.805 134.914 314.789 133.758C315.773 132.586 316.945 131.734 318.305 131.203C319.68 130.672 321.211 130.406 322.898 130.406C324.258 130.406 325.508 130.578 326.648 130.922C327.805 131.25 328.836 131.773 329.742 132.492C330.664 133.211 331.445 134.148 332.086 135.305C332.742 136.445 333.242 137.828 333.586 139.453C333.93 141.062 334.102 142.938 334.102 145.078ZM328.453 151.453V144.234C328.453 142.875 328.375 141.68 328.219 140.648C328.062 139.602 327.828 138.719 327.516 138C327.219 137.266 326.844 136.672 326.391 136.219C325.938 135.75 325.422 135.414 324.844 135.211C324.266 134.992 323.617 134.883 322.898 134.883C322.023 134.883 321.242 135.055 320.555 135.398C319.867 135.727 319.289 136.258 318.82 136.992C318.352 137.727 317.992 138.695 317.742 139.898C317.508 141.086 317.391 142.531 317.391 144.234V151.453C317.391 152.828 317.469 154.039 317.625 155.086C317.781 156.133 318.016 157.031 318.328 157.781C318.641 158.516 319.016 159.125 319.453 159.609C319.906 160.078 320.422 160.422 321 160.641C321.594 160.859 322.242 160.969 322.945 160.969C323.836 160.969 324.625 160.797 325.312 160.453C326 160.109 326.578 159.562 327.047 158.812C327.516 158.047 327.867 157.055 328.102 155.836C328.336 154.617 328.453 153.156 328.453 151.453Z" fill="white"/>
<path d="M237.346 175.434V186H235.539V175.434H237.346ZM236.73 180.287V181.771C236.366 181.908 235.995 182.032 235.617 182.143C235.246 182.247 234.852 182.331 234.436 182.396C234.025 182.455 233.579 182.484 233.098 182.484C232.264 182.484 231.542 182.341 230.93 182.055C230.318 181.762 229.846 181.322 229.514 180.736C229.182 180.144 229.016 179.398 229.016 178.5V175.414H230.822V178.5C230.822 179.086 230.91 179.561 231.086 179.926C231.262 180.29 231.519 180.561 231.857 180.736C232.196 180.906 232.609 180.99 233.098 180.99C233.566 180.99 234.006 180.961 234.416 180.902C234.833 180.837 235.23 180.753 235.607 180.648C235.992 180.544 236.366 180.424 236.73 180.287ZM246.486 184.193V178.754C246.486 178.337 246.402 177.976 246.232 177.67C246.07 177.357 245.822 177.117 245.49 176.947C245.158 176.778 244.748 176.693 244.26 176.693C243.804 176.693 243.404 176.771 243.059 176.928C242.72 177.084 242.453 177.289 242.258 177.543C242.069 177.797 241.975 178.07 241.975 178.363H240.168C240.168 177.986 240.266 177.611 240.461 177.24C240.656 176.869 240.936 176.534 241.301 176.234C241.672 175.928 242.115 175.688 242.629 175.512C243.15 175.329 243.729 175.238 244.367 175.238C245.135 175.238 245.812 175.368 246.398 175.629C246.991 175.889 247.453 176.283 247.785 176.811C248.124 177.331 248.293 177.986 248.293 178.773V183.695C248.293 184.047 248.322 184.421 248.381 184.818C248.446 185.215 248.54 185.557 248.664 185.844V186H246.779C246.688 185.792 246.617 185.515 246.564 185.17C246.512 184.818 246.486 184.493 246.486 184.193ZM246.799 179.594L246.818 180.863H244.992C244.478 180.863 244.019 180.906 243.615 180.99C243.212 181.068 242.873 181.189 242.6 181.352C242.326 181.514 242.118 181.719 241.975 181.967C241.831 182.208 241.76 182.491 241.76 182.816C241.76 183.148 241.835 183.451 241.984 183.725C242.134 183.998 242.359 184.216 242.658 184.379C242.964 184.535 243.339 184.613 243.781 184.613C244.335 184.613 244.823 184.496 245.246 184.262C245.669 184.027 246.005 183.741 246.252 183.402C246.506 183.064 246.643 182.735 246.662 182.416L247.434 183.285C247.388 183.559 247.264 183.861 247.062 184.193C246.861 184.525 246.59 184.844 246.252 185.15C245.92 185.45 245.523 185.701 245.061 185.902C244.605 186.098 244.09 186.195 243.518 186.195C242.801 186.195 242.173 186.055 241.633 185.775C241.099 185.495 240.682 185.121 240.383 184.652C240.09 184.177 239.943 183.646 239.943 183.061C239.943 182.494 240.054 181.996 240.275 181.566C240.497 181.13 240.816 180.769 241.232 180.482C241.649 180.189 242.15 179.968 242.736 179.818C243.322 179.669 243.977 179.594 244.699 179.594H246.799ZM255.363 184.711C255.793 184.711 256.19 184.623 256.555 184.447C256.919 184.271 257.219 184.031 257.453 183.725C257.688 183.412 257.821 183.057 257.854 182.66H259.572C259.54 183.285 259.328 183.868 258.938 184.408C258.553 184.942 258.049 185.375 257.424 185.707C256.799 186.033 256.112 186.195 255.363 186.195C254.569 186.195 253.876 186.055 253.283 185.775C252.697 185.495 252.209 185.111 251.818 184.623C251.434 184.135 251.145 183.575 250.949 182.943C250.76 182.305 250.666 181.632 250.666 180.922V180.512C250.666 179.802 250.76 179.132 250.949 178.5C251.145 177.862 251.434 177.299 251.818 176.811C252.209 176.322 252.697 175.938 253.283 175.658C253.876 175.378 254.569 175.238 255.363 175.238C256.19 175.238 256.913 175.408 257.531 175.746C258.15 176.078 258.635 176.534 258.986 177.113C259.344 177.686 259.54 178.337 259.572 179.066H257.854C257.821 178.63 257.697 178.236 257.482 177.885C257.274 177.533 256.988 177.253 256.623 177.045C256.265 176.83 255.845 176.723 255.363 176.723C254.81 176.723 254.344 176.833 253.967 177.055C253.596 177.27 253.299 177.562 253.078 177.934C252.863 178.298 252.707 178.705 252.609 179.154C252.518 179.597 252.473 180.049 252.473 180.512V180.922C252.473 181.384 252.518 181.84 252.609 182.289C252.701 182.738 252.854 183.145 253.068 183.51C253.29 183.874 253.586 184.167 253.957 184.389C254.335 184.604 254.803 184.711 255.363 184.711ZM261.125 180.834V180.609C261.125 179.848 261.236 179.141 261.457 178.49C261.678 177.833 261.997 177.263 262.414 176.781C262.831 176.293 263.335 175.915 263.928 175.648C264.52 175.375 265.184 175.238 265.92 175.238C266.662 175.238 267.329 175.375 267.922 175.648C268.521 175.915 269.029 176.293 269.445 176.781C269.868 177.263 270.191 177.833 270.412 178.49C270.633 179.141 270.744 179.848 270.744 180.609V180.834C270.744 181.596 270.633 182.302 270.412 182.953C270.191 183.604 269.868 184.174 269.445 184.662C269.029 185.144 268.524 185.521 267.932 185.795C267.346 186.062 266.682 186.195 265.939 186.195C265.197 186.195 264.53 186.062 263.938 185.795C263.345 185.521 262.837 185.144 262.414 184.662C261.997 184.174 261.678 183.604 261.457 182.953C261.236 182.302 261.125 181.596 261.125 180.834ZM262.932 180.609V180.834C262.932 181.361 262.993 181.859 263.117 182.328C263.241 182.79 263.426 183.201 263.674 183.559C263.928 183.917 264.243 184.2 264.621 184.408C264.999 184.61 265.438 184.711 265.939 184.711C266.434 184.711 266.867 184.61 267.238 184.408C267.616 184.2 267.928 183.917 268.176 183.559C268.423 183.201 268.609 182.79 268.732 182.328C268.863 181.859 268.928 181.361 268.928 180.834V180.609C268.928 180.089 268.863 179.597 268.732 179.135C268.609 178.666 268.42 178.253 268.166 177.895C267.919 177.53 267.606 177.243 267.229 177.035C266.857 176.827 266.421 176.723 265.92 176.723C265.425 176.723 264.989 176.827 264.611 177.035C264.24 177.243 263.928 177.53 263.674 177.895C263.426 178.253 263.241 178.666 263.117 179.135C262.993 179.597 262.932 180.089 262.932 180.609ZM277.971 181.352H274.504L274.484 179.906H277.316C277.876 179.906 278.342 179.851 278.713 179.74C279.09 179.63 279.374 179.464 279.562 179.242C279.751 179.021 279.846 178.747 279.846 178.422C279.846 178.168 279.79 177.947 279.68 177.758C279.576 177.562 279.416 177.403 279.201 177.279C278.986 177.149 278.719 177.055 278.4 176.996C278.088 176.931 277.72 176.898 277.297 176.898H274.982V186H273.176V175.434H277.297C277.967 175.434 278.57 175.492 279.104 175.609C279.644 175.727 280.103 175.906 280.48 176.146C280.865 176.381 281.158 176.68 281.359 177.045C281.561 177.41 281.662 177.839 281.662 178.334C281.662 178.653 281.597 178.956 281.467 179.242C281.337 179.529 281.145 179.783 280.891 180.004C280.637 180.225 280.324 180.408 279.953 180.551C279.582 180.688 279.156 180.775 278.674 180.814L277.971 181.352ZM277.971 186H273.85L274.748 184.535H277.971C278.472 184.535 278.889 184.473 279.221 184.35C279.553 184.219 279.8 184.037 279.963 183.803C280.132 183.562 280.217 183.275 280.217 182.943C280.217 182.611 280.132 182.328 279.963 182.094C279.8 181.853 279.553 181.671 279.221 181.547C278.889 181.417 278.472 181.352 277.971 181.352H275.227L275.246 179.906H278.674L279.328 180.453C279.908 180.499 280.399 180.642 280.803 180.883C281.206 181.124 281.512 181.43 281.721 181.801C281.929 182.165 282.033 182.562 282.033 182.992C282.033 183.487 281.939 183.923 281.75 184.301C281.568 184.678 281.301 184.994 280.949 185.248C280.598 185.495 280.171 185.684 279.67 185.814C279.169 185.938 278.602 186 277.971 186ZM236.418 198.434V199.928H231.076V198.434H236.418ZM231.34 198.434V209H229.533V198.434H231.34ZM238.02 198.434V209H236.203V198.434H238.02ZM242.727 200.465V213.062H240.91V198.434H242.57L242.727 200.465ZM249.846 203.629V203.834C249.846 204.602 249.755 205.315 249.572 205.973C249.39 206.624 249.123 207.19 248.771 207.672C248.426 208.154 248 208.528 247.492 208.795C246.984 209.062 246.402 209.195 245.744 209.195C245.074 209.195 244.481 209.085 243.967 208.863C243.452 208.642 243.016 208.32 242.658 207.896C242.3 207.473 242.014 206.965 241.799 206.373C241.59 205.781 241.447 205.113 241.369 204.371V203.277C241.447 202.496 241.594 201.796 241.809 201.178C242.023 200.559 242.307 200.032 242.658 199.596C243.016 199.153 243.449 198.818 243.957 198.59C244.465 198.355 245.051 198.238 245.715 198.238C246.379 198.238 246.968 198.368 247.482 198.629C247.997 198.883 248.43 199.247 248.781 199.723C249.133 200.198 249.396 200.768 249.572 201.432C249.755 202.089 249.846 202.822 249.846 203.629ZM248.029 203.834V203.629C248.029 203.102 247.974 202.607 247.863 202.145C247.753 201.676 247.58 201.266 247.346 200.914C247.118 200.556 246.825 200.276 246.467 200.074C246.109 199.866 245.682 199.762 245.188 199.762C244.732 199.762 244.335 199.84 243.996 199.996C243.664 200.152 243.381 200.364 243.146 200.631C242.912 200.891 242.72 201.191 242.57 201.529C242.427 201.861 242.32 202.206 242.248 202.564V205.094C242.378 205.549 242.561 205.979 242.795 206.383C243.029 206.78 243.342 207.102 243.732 207.35C244.123 207.59 244.615 207.711 245.207 207.711C245.695 207.711 246.115 207.61 246.467 207.408C246.825 207.2 247.118 206.917 247.346 206.559C247.58 206.201 247.753 205.79 247.863 205.328C247.974 204.859 248.029 204.361 248.029 203.834ZM256.535 209.195C255.799 209.195 255.132 209.072 254.533 208.824C253.941 208.57 253.43 208.215 253 207.76C252.577 207.304 252.251 206.764 252.023 206.139C251.796 205.514 251.682 204.83 251.682 204.088V203.678C251.682 202.818 251.809 202.053 252.062 201.383C252.316 200.706 252.661 200.133 253.098 199.664C253.534 199.195 254.029 198.84 254.582 198.6C255.135 198.359 255.708 198.238 256.301 198.238C257.056 198.238 257.707 198.368 258.254 198.629C258.807 198.889 259.26 199.254 259.611 199.723C259.963 200.185 260.223 200.732 260.393 201.363C260.562 201.988 260.646 202.672 260.646 203.414V204.225H252.756V202.75H258.84V202.613C258.814 202.145 258.716 201.689 258.547 201.246C258.384 200.803 258.124 200.439 257.766 200.152C257.408 199.866 256.919 199.723 256.301 199.723C255.891 199.723 255.513 199.811 255.168 199.986C254.823 200.156 254.527 200.41 254.279 200.748C254.032 201.087 253.84 201.5 253.703 201.988C253.566 202.477 253.498 203.04 253.498 203.678V204.088C253.498 204.589 253.566 205.061 253.703 205.504C253.846 205.94 254.051 206.324 254.318 206.656C254.592 206.988 254.921 207.249 255.305 207.438C255.695 207.626 256.138 207.721 256.633 207.721C257.271 207.721 257.811 207.59 258.254 207.33C258.697 207.07 259.084 206.721 259.416 206.285L260.51 207.154C260.282 207.499 259.992 207.828 259.641 208.141C259.289 208.453 258.856 208.707 258.342 208.902C257.834 209.098 257.232 209.195 256.535 209.195ZM269.797 198.434V199.928H264.455V198.434H269.797ZM264.719 198.434V209H262.912V198.434H264.719ZM271.398 198.434V209H269.582V198.434H271.398ZM273.82 203.834V203.609C273.82 202.848 273.931 202.141 274.152 201.49C274.374 200.833 274.693 200.263 275.109 199.781C275.526 199.293 276.031 198.915 276.623 198.648C277.215 198.375 277.88 198.238 278.615 198.238C279.357 198.238 280.025 198.375 280.617 198.648C281.216 198.915 281.724 199.293 282.141 199.781C282.564 200.263 282.886 200.833 283.107 201.49C283.329 202.141 283.439 202.848 283.439 203.609V203.834C283.439 204.596 283.329 205.302 283.107 205.953C282.886 206.604 282.564 207.174 282.141 207.662C281.724 208.144 281.219 208.521 280.627 208.795C280.041 209.062 279.377 209.195 278.635 209.195C277.893 209.195 277.225 209.062 276.633 208.795C276.04 208.521 275.533 208.144 275.109 207.662C274.693 207.174 274.374 206.604 274.152 205.953C273.931 205.302 273.82 204.596 273.82 203.834ZM275.627 203.609V203.834C275.627 204.361 275.689 204.859 275.812 205.328C275.936 205.79 276.122 206.201 276.369 206.559C276.623 206.917 276.939 207.2 277.316 207.408C277.694 207.61 278.133 207.711 278.635 207.711C279.13 207.711 279.562 207.61 279.934 207.408C280.311 207.2 280.624 206.917 280.871 206.559C281.118 206.201 281.304 205.79 281.428 205.328C281.558 204.859 281.623 204.361 281.623 203.834V203.609C281.623 203.089 281.558 202.597 281.428 202.135C281.304 201.666 281.115 201.253 280.861 200.895C280.614 200.53 280.301 200.243 279.924 200.035C279.553 199.827 279.117 199.723 278.615 199.723C278.12 199.723 277.684 199.827 277.307 200.035C276.936 200.243 276.623 200.53 276.369 200.895C276.122 201.253 275.936 201.666 275.812 202.135C275.689 202.597 275.627 203.089 275.627 203.609ZM286.906 198.434H288.713L288.557 202.389C288.518 203.391 288.404 204.257 288.215 204.986C288.026 205.715 287.785 206.337 287.492 206.852C287.199 207.359 286.87 207.786 286.506 208.131C286.148 208.476 285.777 208.766 285.393 209H284.494L284.543 207.525L284.914 207.516C285.129 207.262 285.337 207.001 285.539 206.734C285.741 206.461 285.926 206.139 286.096 205.768C286.265 205.39 286.405 204.931 286.516 204.391C286.633 203.844 286.708 203.176 286.74 202.389L286.906 198.434ZM287.355 198.434H293.713V209H291.906V200.104H287.355V198.434ZM284.084 207.516H295.07V212.115H293.264V209H285.891V212.115H284.074L284.084 207.516ZM303.303 207.193V201.754C303.303 201.337 303.218 200.976 303.049 200.67C302.886 200.357 302.639 200.117 302.307 199.947C301.975 199.778 301.564 199.693 301.076 199.693C300.62 199.693 300.22 199.771 299.875 199.928C299.536 200.084 299.27 200.289 299.074 200.543C298.885 200.797 298.791 201.07 298.791 201.363H296.984C296.984 200.986 297.082 200.611 297.277 200.24C297.473 199.869 297.753 199.534 298.117 199.234C298.488 198.928 298.931 198.688 299.445 198.512C299.966 198.329 300.546 198.238 301.184 198.238C301.952 198.238 302.629 198.368 303.215 198.629C303.807 198.889 304.27 199.283 304.602 199.811C304.94 200.331 305.109 200.986 305.109 201.773V206.695C305.109 207.047 305.139 207.421 305.197 207.818C305.262 208.215 305.357 208.557 305.48 208.844V209H303.596C303.505 208.792 303.433 208.515 303.381 208.17C303.329 207.818 303.303 207.493 303.303 207.193ZM303.615 202.594L303.635 203.863H301.809C301.294 203.863 300.835 203.906 300.432 203.99C300.028 204.068 299.689 204.189 299.416 204.352C299.143 204.514 298.934 204.719 298.791 204.967C298.648 205.208 298.576 205.491 298.576 205.816C298.576 206.148 298.651 206.451 298.801 206.725C298.951 206.998 299.175 207.216 299.475 207.379C299.781 207.535 300.155 207.613 300.598 207.613C301.151 207.613 301.639 207.496 302.062 207.262C302.486 207.027 302.821 206.741 303.068 206.402C303.322 206.064 303.459 205.735 303.479 205.416L304.25 206.285C304.204 206.559 304.081 206.861 303.879 207.193C303.677 207.525 303.407 207.844 303.068 208.15C302.736 208.45 302.339 208.701 301.877 208.902C301.421 209.098 300.907 209.195 300.334 209.195C299.618 209.195 298.99 209.055 298.449 208.775C297.915 208.495 297.499 208.121 297.199 207.652C296.906 207.177 296.76 206.646 296.76 206.061C296.76 205.494 296.87 204.996 297.092 204.566C297.313 204.13 297.632 203.769 298.049 203.482C298.465 203.189 298.967 202.968 299.553 202.818C300.139 202.669 300.793 202.594 301.516 202.594H303.615ZM312.912 204.352H309.445L309.426 202.906H312.258C312.818 202.906 313.283 202.851 313.654 202.74C314.032 202.63 314.315 202.464 314.504 202.242C314.693 202.021 314.787 201.747 314.787 201.422C314.787 201.168 314.732 200.947 314.621 200.758C314.517 200.562 314.357 200.403 314.143 200.279C313.928 200.149 313.661 200.055 313.342 199.996C313.029 199.931 312.661 199.898 312.238 199.898H309.924V209H308.117V198.434H312.238C312.909 198.434 313.511 198.492 314.045 198.609C314.585 198.727 315.044 198.906 315.422 199.146C315.806 199.381 316.099 199.68 316.301 200.045C316.503 200.41 316.604 200.839 316.604 201.334C316.604 201.653 316.538 201.956 316.408 202.242C316.278 202.529 316.086 202.783 315.832 203.004C315.578 203.225 315.266 203.408 314.895 203.551C314.523 203.688 314.097 203.775 313.615 203.814L312.912 204.352ZM312.912 209H308.791L309.689 207.535H312.912C313.413 207.535 313.83 207.473 314.162 207.35C314.494 207.219 314.742 207.037 314.904 206.803C315.074 206.562 315.158 206.275 315.158 205.943C315.158 205.611 315.074 205.328 314.904 205.094C314.742 204.853 314.494 204.671 314.162 204.547C313.83 204.417 313.413 204.352 312.912 204.352H310.168L310.188 202.906H313.615L314.27 203.453C314.849 203.499 315.34 203.642 315.744 203.883C316.148 204.124 316.454 204.43 316.662 204.801C316.87 205.165 316.975 205.562 316.975 205.992C316.975 206.487 316.88 206.923 316.691 207.301C316.509 207.678 316.242 207.994 315.891 208.248C315.539 208.495 315.113 208.684 314.611 208.814C314.11 208.938 313.544 209 312.912 209ZM325.627 207.193V201.754C325.627 201.337 325.542 200.976 325.373 200.67C325.21 200.357 324.963 200.117 324.631 199.947C324.299 199.778 323.889 199.693 323.4 199.693C322.945 199.693 322.544 199.771 322.199 199.928C321.861 200.084 321.594 200.289 321.398 200.543C321.21 200.797 321.115 201.07 321.115 201.363H319.309C319.309 200.986 319.406 200.611 319.602 200.24C319.797 199.869 320.077 199.534 320.441 199.234C320.812 198.928 321.255 198.688 321.77 198.512C322.29 198.329 322.87 198.238 323.508 198.238C324.276 198.238 324.953 198.368 325.539 198.629C326.132 198.889 326.594 199.283 326.926 199.811C327.264 200.331 327.434 200.986 327.434 201.773V206.695C327.434 207.047 327.463 207.421 327.521 207.818C327.587 208.215 327.681 208.557 327.805 208.844V209H325.92C325.829 208.792 325.757 208.515 325.705 208.17C325.653 207.818 325.627 207.493 325.627 207.193ZM325.939 202.594L325.959 203.863H324.133C323.618 203.863 323.16 203.906 322.756 203.99C322.352 204.068 322.014 204.189 321.74 204.352C321.467 204.514 321.258 204.719 321.115 204.967C320.972 205.208 320.9 205.491 320.9 205.816C320.9 206.148 320.975 206.451 321.125 206.725C321.275 206.998 321.499 207.216 321.799 207.379C322.105 207.535 322.479 207.613 322.922 207.613C323.475 207.613 323.964 207.496 324.387 207.262C324.81 207.027 325.145 206.741 325.393 206.402C325.646 206.064 325.783 205.735 325.803 205.416L326.574 206.285C326.529 206.559 326.405 206.861 326.203 207.193C326.001 207.525 325.731 207.844 325.393 208.15C325.061 208.45 324.663 208.701 324.201 208.902C323.745 209.098 323.231 209.195 322.658 209.195C321.942 209.195 321.314 209.055 320.773 208.775C320.24 208.495 319.823 208.121 319.523 207.652C319.23 207.177 319.084 206.646 319.084 206.061C319.084 205.494 319.195 204.996 319.416 204.566C319.637 204.13 319.956 203.769 320.373 203.482C320.79 203.189 321.291 202.968 321.877 202.818C322.463 202.669 323.117 202.594 323.84 202.594H325.939ZM337.443 203.014V204.479H331.857V203.014H337.443ZM332.238 198.434V209H330.432V198.434H332.238ZM338.908 198.434V209H337.092V198.434H338.908ZM343.771 206.139L348.645 198.434H350.461V209H348.645V201.295L343.771 209H341.975V198.434H343.771V206.139ZM355.5 203.961H357.453L354.396 209H352.443L355.5 203.961ZM357.014 198.434H361.428V209H359.621V199.898H357.014C356.499 199.898 356.079 199.986 355.754 200.162C355.428 200.331 355.191 200.553 355.041 200.826C354.891 201.1 354.816 201.383 354.816 201.676C354.816 201.962 354.885 202.239 355.021 202.506C355.158 202.766 355.373 202.981 355.666 203.15C355.959 203.32 356.337 203.404 356.799 203.404H360.109V204.889H356.799C356.193 204.889 355.656 204.807 355.188 204.645C354.719 204.482 354.322 204.257 353.996 203.971C353.671 203.678 353.423 203.336 353.254 202.945C353.085 202.548 353 202.118 353 201.656C353 201.194 353.088 200.768 353.264 200.377C353.446 199.986 353.706 199.645 354.045 199.352C354.39 199.059 354.81 198.834 355.305 198.678C355.806 198.515 356.376 198.434 357.014 198.434Z" fill="white"/>
<g filter="url(#filter0_f_90_8)">
<ellipse cx="133.86" cy="170.246" rx="25.8674" ry="36.5884" transform="rotate(-15.8162 133.86 170.246)" fill="#FF5C00"/>
</g>
<g filter="url(#filter1_f_90_8)">
<ellipse cx="154.783" cy="208.35" rx="34.3876" ry="72.9017" fill="#EAEE26" fill-opacity="0.6"/>
</g>
<g filter="url(#filter2_f_90_8)">
<ellipse cx="197.698" cy="136.824" rx="11.8293" ry="36.5884" transform="rotate(-39.2265 197.698 136.824)" fill="#EAEE26" fill-opacity="0.54"/>
</g>
<g filter="url(#filter3_ii_90_8)">
<g clip-path="url(#clip0_90_8)">
<rect x="100.037" y="118.943" width="110.04" height="110.04" rx="55.0202" fill="#F4F4F4"/>
<g filter="url(#filter4_f_90_8)">
<ellipse rx="45.9635" ry="84.7507" transform="matrix(-0.830673 0.556761 0.556761 0.830673 151.404 263.933)" fill="#FF5C00"/>
</g>
</g>
</g>
<g filter="url(#filter5_ii_90_8)">
<g clip-path="url(#clip1_90_8)">
<rect x="100.037" y="111.24" width="110.04" height="110.04" rx="55.0202" fill="#F4F4F4"/>
<g filter="url(#filter6_f_90_8)">
<ellipse cx="206.972" cy="281.86" rx="97.7897" ry="129.209" transform="rotate(76.9495 206.972 281.86)" fill="#EAEE26"/>
</g>
<g filter="url(#filter7_f_90_8)">
<ellipse cx="94.0653" cy="297.258" rx="195.818" ry="81.8094" transform="rotate(76.9495 94.0653 297.258)" fill="#FF5C00"/>
</g>
<g filter="url(#filter8_d_90_8)">
<path d="M173.664 153.684C173.555 153.489 173.396 153.326 173.205 153.214C173.013 153.101 172.795 153.041 172.573 153.041H156.14L158.895 131.785C158.925 131.501 158.859 131.215 158.708 130.973C158.557 130.731 158.329 130.547 158.062 130.452C157.795 130.356 157.504 130.354 157.236 130.446C156.968 130.538 156.738 130.718 156.583 130.958L136.599 166.311C136.483 166.503 136.419 166.723 136.414 166.949C136.409 167.174 136.464 167.396 136.573 167.593C136.682 167.79 136.841 167.953 137.033 168.067C137.226 168.181 137.445 168.241 137.668 168.242H153.855L151.672 189.529C151.65 189.813 151.723 190.095 151.879 190.332C152.035 190.569 152.265 190.746 152.532 190.836C152.799 190.925 153.089 190.922 153.354 190.827C153.619 190.731 153.845 190.549 153.996 190.309L173.649 154.959C173.763 154.767 173.825 154.547 173.827 154.323C173.83 154.099 173.774 153.878 173.664 153.684Z" fill="url(#paint0_linear_90_8)"/>
</g>
<g filter="url(#filter9_ii_90_8)">
<path d="M176.883 152.545C176.755 152.318 176.568 152.13 176.343 151.998C176.118 151.867 175.862 151.798 175.601 151.798H156.292L159.529 127.064C159.564 126.733 159.486 126.4 159.309 126.118C159.131 125.837 158.864 125.623 158.55 125.512C158.237 125.401 157.895 125.398 157.579 125.505C157.264 125.612 156.994 125.822 156.812 126.101L133.331 167.239C133.193 167.463 133.118 167.719 133.113 167.981C133.107 168.243 133.172 168.502 133.3 168.731C133.428 168.96 133.614 169.15 133.841 169.283C134.067 169.415 134.324 169.485 134.586 169.485H153.607L151.041 194.257C151.016 194.587 151.102 194.915 151.285 195.191C151.468 195.466 151.738 195.673 152.052 195.777C152.366 195.881 152.706 195.878 153.018 195.766C153.329 195.655 153.595 195.443 153.772 195.164L176.866 154.029C177 153.805 177.072 153.55 177.075 153.29C177.078 153.029 177.012 152.772 176.883 152.545Z" fill="url(#paint1_linear_90_8)"/>
<path d="M176.883 152.545C176.755 152.318 176.568 152.13 176.343 151.998C176.118 151.867 175.862 151.798 175.601 151.798H156.292L159.529 127.064C159.564 126.733 159.486 126.4 159.309 126.118C159.131 125.837 158.864 125.623 158.55 125.512C158.237 125.401 157.895 125.398 157.579 125.505C157.264 125.612 156.994 125.822 156.812 126.101L133.331 167.239C133.193 167.463 133.118 167.719 133.113 167.981C133.107 168.243 133.172 168.502 133.3 168.731C133.428 168.96 133.614 169.15 133.841 169.283C134.067 169.415 134.324 169.485 134.586 169.485H153.607L151.041 194.257C151.016 194.587 151.102 194.915 151.285 195.191C151.468 195.466 151.738 195.673 152.052 195.777C152.366 195.881 152.706 195.878 153.018 195.766C153.329 195.655 153.595 195.443 153.772 195.164L176.866 154.029C177 153.805 177.072 153.55 177.075 153.29C177.078 153.029 177.012 152.772 176.883 152.545Z" fill="url(#paint2_radial_90_8)"/>
<path d="M176.883 152.545C176.755 152.318 176.568 152.13 176.343 151.998C176.118 151.867 175.862 151.798 175.601 151.798H156.292L159.529 127.064C159.564 126.733 159.486 126.4 159.309 126.118C159.131 125.837 158.864 125.623 158.55 125.512C158.237 125.401 157.895 125.398 157.579 125.505C157.264 125.612 156.994 125.822 156.812 126.101L133.331 167.239C133.193 167.463 133.118 167.719 133.113 167.981C133.107 168.243 133.172 168.502 133.3 168.731C133.428 168.96 133.614 169.15 133.841 169.283C134.067 169.415 134.324 169.485 134.586 169.485H153.607L151.041 194.257C151.016 194.587 151.102 194.915 151.285 195.191C151.468 195.466 151.738 195.673 152.052 195.777C152.366 195.881 152.706 195.878 153.018 195.766C153.329 195.655 153.595 195.443 153.772 195.164L176.866 154.029C177 153.805 177.072 153.55 177.075 153.29C177.078 153.029 177.012 152.772 176.883 152.545Z" fill="url(#paint3_radial_90_8)"/>
</g>
<g filter="url(#filter10_f_90_8)">
<ellipse cx="186.152" cy="212.525" rx="2.5" ry="20" transform="rotate(90 186.152 212.525)" fill="white"/>
</g>
<g filter="url(#filter11_f_90_8)">
<ellipse cx="200.741" cy="229.804" rx="2.09273" ry="21.5709" transform="rotate(-174.364 200.741 229.804)" fill="white"/>
</g>
</g>
</g>
<defs>
<filter id="filter0_f_90_8" x="0.0415955" y="27.3372" width="267.638" height="285.818" filterUnits="userSpaceOnUse" color-interpolation-filters="sRGB">
<feFlood flood-opacity="0" result="BackgroundImageFix"/>
<feBlend mode="normal" in="SourceGraphic" in2="BackgroundImageFix" result="shape"/>
<feGaussianBlur stdDeviation="53.5" result="effect1_foregroundBlur_90_8"/>
</filter>
<filter id="filter1_f_90_8" x="13.395" y="28.4485" width="282.775" height="359.804" filterUnits="userSpaceOnUse" color-interpolation-filters="sRGB">
<feFlood flood-opacity="0" result="BackgroundImageFix"/>
<feBlend mode="normal" in="SourceGraphic" in2="BackgroundImageFix" result="shape"/>
<feGaussianBlur stdDeviation="53.5" result="effect1_foregroundBlur_90_8"/>
</filter>
<filter id="filter2_f_90_8" x="65.805" y="0.502869" width="263.786" height="272.642" filterUnits="userSpaceOnUse" color-interpolation-filters="sRGB">
<feFlood flood-opacity="0" result="BackgroundImageFix"/>
<feBlend mode="normal" in="SourceGraphic" in2="BackgroundImageFix" result="shape"/>
<feGaussianBlur stdDeviation="53.5" result="effect1_foregroundBlur_90_8"/>
</filter>
<filter id="filter3_ii_90_8" x="97.0375" y="114.943" width="116.04" height="114.04" filterUnits="userSpaceOnUse" color-interpolation-filters="sRGB">
<feFlood flood-opacity="0" result="BackgroundImageFix"/>
<feBlend mode="normal" in="SourceGraphic" in2="BackgroundImageFix" result="shape"/>
<feColorMatrix in="SourceAlpha" type="matrix" values="0 0 0 0 0 0 0 0 0 0 0 0 0 0 0 0 0 0 127 0" result="hardAlpha"/>
<feOffset dx="-3" dy="-4"/>
<feGaussianBlur stdDeviation="9"/>
<feComposite in2="hardAlpha" operator="arithmetic" k2="-1" k3="1"/>
<feColorMatrix type="matrix" values="0 0 0 0 1 0 0 0 0 0.76425 0 0 0 0 0.4875 0 0 0 0.39 0"/>
<feBlend mode="normal" in2="shape" result="effect1_innerShadow_90_8"/>
<feColorMatrix in="SourceAlpha" type="matrix" values="0 0 0 0 0 0 0 0 0 0 0 0 0 0 0 0 0 0 127 0" result="hardAlpha"/>
<feOffset dx="3" dy="-2"/>
<feGaussianBlur stdDeviation="6"/>
<feComposite in2="hardAlpha" operator="arithmetic" k2="-1" k3="1"/>
<feColorMatrix type="matrix" values="0 0 0 0 1 0 0 0 0 1 0 0 0 0 1 0 0 0 1 0"/>
<feBlend mode="normal" in2="effect1_innerShadow_90_8" result="effect2_innerShadow_90_8"/>
</filter>
<filter id="filter4_f_90_8" x="-9.29625" y="89.0059" width="321.4" height="349.855" filterUnits="userSpaceOnUse" color-interpolation-filters="sRGB">
<feFlood flood-opacity="0" result="BackgroundImageFix"/>
<feBlend mode="normal" in="SourceGraphic" in2="BackgroundImageFix" result="shape"/>
<feGaussianBlur stdDeviation="50" result="effect1_foregroundBlur_90_8"/>
</filter>
<filter id="filter5_ii_90_8" x="97.0375" y="107.24" width="126.04" height="118.04" filterUnits="userSpaceOnUse" color-interpolation-filters="sRGB">
<feFlood flood-opacity="0" result="BackgroundImageFix"/>
<feBlend mode="normal" in="SourceGraphic" in2="BackgroundImageFix" result="shape"/>
<feColorMatrix in="SourceAlpha" type="matrix" values="0 0 0 0 0 0 0 0 0 0 0 0 0 0 0 0 0 0 127 0" result="hardAlpha"/>
<feOffset dx="13" dy="4"/>
<feGaussianBlur stdDeviation="10"/>
<feComposite in2="hardAlpha" operator="arithmetic" k2="-1" k3="1"/>
<feColorMatrix type="matrix" values="0 0 0 0 1 0 0 0 0 1 0 0 0 0 1 0 0 0 0.6 0"/>
<feBlend mode="normal" in2="shape" result="effect1_innerShadow_90_8"/>
<feColorMatrix in="SourceAlpha" type="matrix" values="0 0 0 0 0 0 0 0 0 0 0 0 0 0 0 0 0 0 127 0" result="hardAlpha"/>
<feOffset dx="-3" dy="-4"/>
<feGaussianBlur stdDeviation="9"/>
<feComposite in2="hardAlpha" operator="arithmetic" k2="-1" k3="1"/>
<feColorMatrix type="matrix" values="0 0 0 0 1 0 0 0 0 1 0 0 0 0 1 0 0 0 0.78 0"/>
<feBlend mode="normal" in2="effect1_innerShadow_90_8" result="effect2_innerShadow_90_8"/>
</filter>
<filter id="filter6_f_90_8" x="-40.8425" y="62.202" width="495.63" height="439.316" filterUnits="userSpaceOnUse" color-interpolation-filters="sRGB">
<feFlood flood-opacity="0" result="BackgroundImageFix"/>
<feBlend mode="normal" in="SourceGraphic" in2="BackgroundImageFix" result="shape"/>
<feGaussianBlur stdDeviation="60" result="effect1_foregroundBlur_90_8"/>
</filter>
<filter id="filter7_f_90_8" x="-117.092" y="-14.408" width="422.316" height="623.333" filterUnits="userSpaceOnUse" color-interpolation-filters="sRGB">
<feFlood flood-opacity="0" result="BackgroundImageFix"/>
<feBlend mode="normal" in="SourceGraphic" in2="BackgroundImageFix" result="shape"/>
<feGaussianBlur stdDeviation="60" result="effect1_foregroundBlur_90_8"/>
</filter>
<filter id="filter8_d_90_8" x="112.414" y="130.379" width="85.4137" height="120.522" filterUnits="userSpaceOnUse" color-interpolation-filters="sRGB">
<feFlood flood-opacity="0" result="BackgroundImageFix"/>
<feColorMatrix in="SourceAlpha" type="matrix" values="0 0 0 0 0 0 0 0 0 0 0 0 0 0 0 0 0 0 127 0" result="hardAlpha"/>
<feOffset dy="36"/>
<feGaussianBlur stdDeviation="12"/>
<feComposite in2="hardAlpha" operator="out"/>
<feColorMatrix type="matrix" values="0 0 0 0 0.7875 0 0 0 0 0.434214 0 0 0 0 0.137812 0 0 0 0.6 0"/>
<feBlend mode="normal" in2="BackgroundImageFix" result="effect1_dropShadow_90_8"/>
<feBlend mode="normal" in="SourceGraphic" in2="effect1_dropShadow_90_8" result="shape"/>
</filter>
<filter id="filter9_ii_90_8" x="133.112" y="125.427" width="43.9625" height="74.4258" filterUnits="userSpaceOnUse" color-interpolation-filters="sRGB">
<feFlood flood-opacity="0" result="BackgroundImageFix"/>
<feBlend mode="normal" in="SourceGraphic" in2="BackgroundImageFix" result="shape"/>
<feColorMatrix in="SourceAlpha" type="matrix" values="0 0 0 0 0 0 0 0 0 0 0 0 0 0 0 0 0 0 127 0" result="hardAlpha"/>
<feOffset dy="4"/>
<feGaussianBlur stdDeviation="12"/>
<feComposite in2="hardAlpha" operator="arithmetic" k2="-1" k3="1"/>
<feColorMatrix type="matrix" values="0 0 0 0 1 0 0 0 0 1 0 0 0 0 1 0 0 0 1 0"/>
<feBlend mode="normal" in2="shape" result="effect1_innerShadow_90_8"/>
<feColorMatrix in="SourceAlpha" type="matrix" values="0 0 0 0 0 0 0 0 0 0 0 0 0 0 0 0 0 0 127 0" result="hardAlpha"/>
<feOffset dy="4"/>
<feGaussianBlur stdDeviation="12"/>
<feComposite in2="hardAlpha" operator="arithmetic" k2="-1" k3="1"/>
<feColorMatrix type="matrix" values="0 0 0 0 1 0 0 0 0 1 0 0 0 0 1 0 0 0 1 0"/>
<feBlend mode="normal" in2="effect1_innerShadow_90_8" result="effect2_innerShadow_90_8"/>
</filter>
<filter id="filter10_f_90_8" x="158.152" y="202.025" width="56" height="21" filterUnits="userSpaceOnUse" color-interpolation-filters="sRGB">
<feFlood flood-opacity="0" result="BackgroundImageFix"/>
<feBlend mode="normal" in="SourceGraphic" in2="BackgroundImageFix" result="shape"/>
<feGaussianBlur stdDeviation="4" result="effect1_foregroundBlur_90_8"/>
</filter>
<filter id="filter11_f_90_8" x="189.771" y="200.336" width="21.9412" height="58.9354" filterUnits="userSpaceOnUse" color-interpolation-filters="sRGB">
<feFlood flood-opacity="0" result="BackgroundImageFix"/>
<feBlend mode="normal" in="SourceGraphic" in2="BackgroundImageFix" result="shape"/>
<feGaussianBlur stdDeviation="4" result="effect1_foregroundBlur_90_8"/>
</filter>
<linearGradient id="paint0_linear_90_8" x1="144.14" y1="152.838" x2="155.32" y2="190.842" gradientUnits="userSpaceOnUse">
<stop stop-color="#FFF500"/>
<stop offset="1" stop-color="#F6A01F"/>
</linearGradient>
<linearGradient id="paint1_linear_90_8" x1="142.191" y1="151.561" x2="155.094" y2="195.853" gradientUnits="userSpaceOnUse">
<stop stop-color="#FFF500"/>
<stop offset="1" stop-color="#F6A01F"/>
</linearGradient>
<radialGradient id="paint2_radial_90_8" cx="0" cy="0" r="1" gradientUnits="userSpaceOnUse" gradientTransform="translate(159.247 125.427) rotate(109.861) scale(76.927 72.097)">
<stop stop-color="white"/>
<stop offset="0.464944" stop-color="white" stop-opacity="0"/>
</radialGradient>
<radialGradient id="paint3_radial_90_8" cx="0" cy="0" r="1" gradientUnits="userSpaceOnUse" gradientTransform="translate(177.954 153.762) rotate(137.139) scale(46.9134 43.9678)">
<stop stop-color="#FA882B"/>
<stop offset="0.464944" stop-color="#FA8C33" stop-opacity="0"/>
</radialGradient>
<clipPath id="clip0_90_8">
<rect x="100.037" y="118.943" width="110.04" height="110.04" rx="55.0202" fill="white"/>
</clipPath>
<clipPath id="clip1_90_8">
<rect x="100.037" y="111.24" width="110.04" height="110.04" rx="55.0202" fill="white"/>
</clipPath>
</defs>
</svg>
