<svg width="361" height="382" viewBox="0 0 361 382" fill="none" xmlns="http://www.w3.org/2000/svg">
<g filter="url(#filter0_f_90_6)">
<ellipse cx="133.466" cy="167.476" rx="24.8325" ry="35.1246" transform="rotate(-15.8162 133.466 167.476)" fill="#26C2FA"/>
</g>
<g filter="url(#filter1_f_90_6)">
<ellipse cx="153.551" cy="204.055" rx="33.0118" ry="69.985" fill="#F33EE7" fill-opacity="0.6"/>
</g>
<g filter="url(#filter2_f_90_6)">
<ellipse cx="194.749" cy="135.391" rx="11.3561" ry="35.1246" transform="rotate(-39.2265 194.749 135.391)" fill="#FF3333" fill-opacity="0.54"/>
</g>
<g filter="url(#filter3_ii_90_6)">
<g clip-path="url(#clip0_90_6)">
<rect x="100.996" y="118.225" width="105.638" height="105.638" rx="52.8189" fill="white"/>
<g filter="url(#filter4_f_90_6)">
<ellipse rx="45.9635" ry="84.7507" transform="matrix(-0.830673 0.556761 0.556761 0.830673 152.362 263.215)" fill="#FFD8FC"/>
</g>
</g>
</g>
<g filter="url(#filter5_ii_90_6)">
<g clip-path="url(#clip1_90_6)">
<rect x="100.996" y="110.83" width="105.638" height="105.638" rx="52.8189" fill="white"/>
<g filter="url(#filter6_f_90_6)">
<circle cx="175.886" cy="272.721" r="87.1834" transform="rotate(158.84 175.886 272.721)" fill="#FF3333"/>
</g>
<g filter="url(#filter7_f_90_6)">
<circle cx="130.73" cy="179.908" r="63.9236" transform="rotate(158.84 130.73 179.908)" fill="#F33EE7"/>
</g>
<g filter="url(#filter8_f_90_6)">
<ellipse cx="265.118" cy="264.996" rx="56.8989" ry="58.609" transform="rotate(158.84 265.118 264.996)" fill="#26C2FA"/>
</g>
<g filter="url(#filter9_f_90_6)">
<ellipse cx="258.167" cy="147.058" rx="38.4964" ry="58.609" transform="rotate(148.234 258.167 147.058)" fill="#FFD8FC"/>
</g>
<g filter="url(#filter10_f_90_6)">
<ellipse cx="258.167" cy="147.058" rx="38.4964" ry="58.609" transform="rotate(148.234 258.167 147.058)" fill="#FFD8FC"/>
</g>
<g filter="url(#filter11_d_90_6)">
<path d="M173.592 156.743C174.392 155.96 174.675 154.812 174.33 153.744C173.984 152.676 173.082 151.914 171.975 151.752L162.127 150.317C161.708 150.256 161.345 149.992 161.158 149.61L156.755 140.66C156.261 139.655 155.258 139.03 154.14 139.03C153.022 139.03 152.019 139.655 151.525 140.66L147.121 149.611C146.934 149.993 146.571 150.256 146.151 150.318L136.304 151.753C135.197 151.914 134.295 152.677 133.949 153.745C133.604 154.812 133.886 155.961 134.687 156.744L141.812 163.71C142.115 164.008 142.255 164.436 142.183 164.854L140.502 174.691C140.353 175.557 140.579 176.399 141.138 177.063C142.006 178.098 143.522 178.414 144.734 177.775L153.54 173.13C153.908 172.936 154.372 172.938 154.739 173.13L163.547 177.775C163.975 178.001 164.432 178.116 164.903 178.116C165.764 178.116 166.58 177.732 167.141 177.063C167.701 176.399 167.926 175.555 167.777 174.691L166.096 164.854C166.024 164.435 166.163 164.008 166.467 163.71L173.592 156.743Z" fill="url(#paint0_linear_90_6)"/>
</g>
<g filter="url(#filter12_ii_90_6)">
<path d="M181.445 156.001C182.574 154.901 182.972 153.287 182.485 151.786C181.997 150.286 180.726 149.214 179.165 148.987L165.282 146.97C164.691 146.884 164.18 146.513 163.916 145.977L157.709 133.398C157.013 131.985 155.598 131.107 154.022 131.107C152.447 131.107 151.032 131.985 150.335 133.398L144.128 145.978C143.863 146.514 143.351 146.885 142.76 146.971L128.877 148.988C127.317 149.214 126.045 150.287 125.557 151.787C125.07 153.288 125.469 154.902 126.597 156.002L136.642 165.793C137.07 166.211 137.267 166.812 137.165 167.4L134.796 181.226C134.586 182.443 134.905 183.626 135.692 184.56C136.916 186.014 139.053 186.457 140.761 185.56L153.177 179.032C153.696 178.759 154.349 178.762 154.867 179.032L167.283 185.56C167.887 185.878 168.531 186.038 169.196 186.038C170.41 186.038 171.56 185.499 172.351 184.56C173.14 183.626 173.458 182.44 173.248 181.226L170.877 167.4C170.776 166.811 170.972 166.211 171.4 165.793L181.445 156.001Z" fill="url(#paint1_linear_90_6)"/>
<path d="M181.445 156.001C182.574 154.901 182.972 153.287 182.485 151.786C181.997 150.286 180.726 149.214 179.165 148.987L165.282 146.97C164.691 146.884 164.18 146.513 163.916 145.977L157.709 133.398C157.013 131.985 155.598 131.107 154.022 131.107C152.447 131.107 151.032 131.985 150.335 133.398L144.128 145.978C143.863 146.514 143.351 146.885 142.76 146.971L128.877 148.988C127.317 149.214 126.045 150.287 125.557 151.787C125.07 153.288 125.469 154.902 126.597 156.002L136.642 165.793C137.07 166.211 137.267 166.812 137.165 167.4L134.796 181.226C134.586 182.443 134.905 183.626 135.692 184.56C136.916 186.014 139.053 186.457 140.761 185.56L153.177 179.032C153.696 178.759 154.349 178.762 154.867 179.032L167.283 185.56C167.887 185.878 168.531 186.038 169.196 186.038C170.41 186.038 171.56 185.499 172.351 184.56C173.14 183.626 173.458 182.44 173.248 181.226L170.877 167.4C170.776 166.811 170.972 166.211 171.4 165.793L181.445 156.001Z" fill="url(#paint2_radial_90_6)"/>
</g>
</g>
</g>
<path d="M251.602 134.875V137.969L237.961 169H232.008L245.625 139.375H227.953V134.875H251.602Z" fill="white"/>
<path d="M234.438 179.434V180.928H229.33V179.434H234.438ZM236.029 179.434V190H234.223V179.434H236.029ZM228.891 179.434H230.707L230.434 184.531C230.388 185.319 230.313 186.016 230.209 186.621C230.111 187.22 229.975 187.734 229.799 188.164C229.63 188.594 229.415 188.945 229.154 189.219C228.9 189.486 228.594 189.684 228.236 189.814C227.878 189.938 227.465 190 226.996 190H226.43V188.408L226.82 188.379C227.1 188.359 227.338 188.294 227.533 188.184C227.735 188.073 227.904 187.91 228.041 187.695C228.178 187.474 228.288 187.191 228.373 186.846C228.464 186.501 228.533 186.09 228.578 185.615C228.63 185.14 228.669 184.587 228.695 183.955L228.891 179.434ZM243.324 190.195C242.589 190.195 241.921 190.072 241.322 189.824C240.73 189.57 240.219 189.215 239.789 188.76C239.366 188.304 239.04 187.764 238.812 187.139C238.585 186.514 238.471 185.83 238.471 185.088V184.678C238.471 183.818 238.598 183.053 238.852 182.383C239.105 181.706 239.451 181.133 239.887 180.664C240.323 180.195 240.818 179.84 241.371 179.6C241.924 179.359 242.497 179.238 243.09 179.238C243.845 179.238 244.496 179.368 245.043 179.629C245.596 179.889 246.049 180.254 246.4 180.723C246.752 181.185 247.012 181.732 247.182 182.363C247.351 182.988 247.436 183.672 247.436 184.414V185.225H239.545V183.75H245.629V183.613C245.603 183.145 245.505 182.689 245.336 182.246C245.173 181.803 244.913 181.439 244.555 181.152C244.197 180.866 243.708 180.723 243.09 180.723C242.68 180.723 242.302 180.811 241.957 180.986C241.612 181.156 241.316 181.41 241.068 181.748C240.821 182.087 240.629 182.5 240.492 182.988C240.355 183.477 240.287 184.04 240.287 184.678V185.088C240.287 185.589 240.355 186.061 240.492 186.504C240.635 186.94 240.84 187.324 241.107 187.656C241.381 187.988 241.71 188.249 242.094 188.438C242.484 188.626 242.927 188.721 243.422 188.721C244.06 188.721 244.6 188.59 245.043 188.33C245.486 188.07 245.873 187.721 246.205 187.285L247.299 188.154C247.071 188.499 246.781 188.828 246.43 189.141C246.078 189.453 245.645 189.707 245.131 189.902C244.623 190.098 244.021 190.195 243.324 190.195ZM253.734 179.434V190H251.918V179.434H253.734ZM257.279 179.434V180.898H248.441V179.434H257.279ZM234.418 202.434V203.928H229.076V202.434H234.418ZM229.34 202.434V213H227.533V202.434H229.34ZM236.02 202.434V213H234.203V202.434H236.02ZM240.727 204.465V217.062H238.91V202.434H240.57L240.727 204.465ZM247.846 207.629V207.834C247.846 208.602 247.755 209.315 247.572 209.973C247.39 210.624 247.123 211.19 246.771 211.672C246.426 212.154 246 212.528 245.492 212.795C244.984 213.062 244.402 213.195 243.744 213.195C243.074 213.195 242.481 213.085 241.967 212.863C241.452 212.642 241.016 212.32 240.658 211.896C240.3 211.473 240.014 210.965 239.799 210.373C239.59 209.781 239.447 209.113 239.369 208.371V207.277C239.447 206.496 239.594 205.796 239.809 205.178C240.023 204.559 240.307 204.032 240.658 203.596C241.016 203.153 241.449 202.818 241.957 202.59C242.465 202.355 243.051 202.238 243.715 202.238C244.379 202.238 244.968 202.368 245.482 202.629C245.997 202.883 246.43 203.247 246.781 203.723C247.133 204.198 247.396 204.768 247.572 205.432C247.755 206.089 247.846 206.822 247.846 207.629ZM246.029 207.834V207.629C246.029 207.102 245.974 206.607 245.863 206.145C245.753 205.676 245.58 205.266 245.346 204.914C245.118 204.556 244.825 204.276 244.467 204.074C244.109 203.866 243.682 203.762 243.188 203.762C242.732 203.762 242.335 203.84 241.996 203.996C241.664 204.152 241.381 204.364 241.146 204.631C240.912 204.891 240.72 205.191 240.57 205.529C240.427 205.861 240.32 206.206 240.248 206.564V209.094C240.378 209.549 240.561 209.979 240.795 210.383C241.029 210.78 241.342 211.102 241.732 211.35C242.123 211.59 242.615 211.711 243.207 211.711C243.695 211.711 244.115 211.61 244.467 211.408C244.825 211.2 245.118 210.917 245.346 210.559C245.58 210.201 245.753 209.79 245.863 209.328C245.974 208.859 246.029 208.361 246.029 207.834ZM254.535 213.195C253.799 213.195 253.132 213.072 252.533 212.824C251.941 212.57 251.43 212.215 251 211.76C250.577 211.304 250.251 210.764 250.023 210.139C249.796 209.514 249.682 208.83 249.682 208.088V207.678C249.682 206.818 249.809 206.053 250.062 205.383C250.316 204.706 250.661 204.133 251.098 203.664C251.534 203.195 252.029 202.84 252.582 202.6C253.135 202.359 253.708 202.238 254.301 202.238C255.056 202.238 255.707 202.368 256.254 202.629C256.807 202.889 257.26 203.254 257.611 203.723C257.963 204.185 258.223 204.732 258.393 205.363C258.562 205.988 258.646 206.672 258.646 207.414V208.225H250.756V206.75H256.84V206.613C256.814 206.145 256.716 205.689 256.547 205.246C256.384 204.803 256.124 204.439 255.766 204.152C255.408 203.866 254.919 203.723 254.301 203.723C253.891 203.723 253.513 203.811 253.168 203.986C252.823 204.156 252.527 204.41 252.279 204.748C252.032 205.087 251.84 205.5 251.703 205.988C251.566 206.477 251.498 207.04 251.498 207.678V208.088C251.498 208.589 251.566 209.061 251.703 209.504C251.846 209.94 252.051 210.324 252.318 210.656C252.592 210.988 252.921 211.249 253.305 211.438C253.695 211.626 254.138 211.721 254.633 211.721C255.271 211.721 255.811 211.59 256.254 211.33C256.697 211.07 257.084 210.721 257.416 210.285L258.51 211.154C258.282 211.499 257.992 211.828 257.641 212.141C257.289 212.453 256.856 212.707 256.342 212.902C255.834 213.098 255.232 213.195 254.535 213.195ZM267.797 202.434V203.928H262.455V202.434H267.797ZM262.719 202.434V213H260.912V202.434H262.719ZM269.398 202.434V213H267.582V202.434H269.398ZM271.82 207.834V207.609C271.82 206.848 271.931 206.141 272.152 205.49C272.374 204.833 272.693 204.263 273.109 203.781C273.526 203.293 274.031 202.915 274.623 202.648C275.215 202.375 275.88 202.238 276.615 202.238C277.357 202.238 278.025 202.375 278.617 202.648C279.216 202.915 279.724 203.293 280.141 203.781C280.564 204.263 280.886 204.833 281.107 205.49C281.329 206.141 281.439 206.848 281.439 207.609V207.834C281.439 208.596 281.329 209.302 281.107 209.953C280.886 210.604 280.564 211.174 280.141 211.662C279.724 212.144 279.219 212.521 278.627 212.795C278.041 213.062 277.377 213.195 276.635 213.195C275.893 213.195 275.225 213.062 274.633 212.795C274.04 212.521 273.533 212.144 273.109 211.662C272.693 211.174 272.374 210.604 272.152 209.953C271.931 209.302 271.82 208.596 271.82 207.834ZM273.627 207.609V207.834C273.627 208.361 273.689 208.859 273.812 209.328C273.936 209.79 274.122 210.201 274.369 210.559C274.623 210.917 274.939 211.2 275.316 211.408C275.694 211.61 276.133 211.711 276.635 211.711C277.13 211.711 277.562 211.61 277.934 211.408C278.311 211.2 278.624 210.917 278.871 210.559C279.118 210.201 279.304 209.79 279.428 209.328C279.558 208.859 279.623 208.361 279.623 207.834V207.609C279.623 207.089 279.558 206.597 279.428 206.135C279.304 205.666 279.115 205.253 278.861 204.895C278.614 204.53 278.301 204.243 277.924 204.035C277.553 203.827 277.117 203.723 276.615 203.723C276.12 203.723 275.684 203.827 275.307 204.035C274.936 204.243 274.623 204.53 274.369 204.895C274.122 205.253 273.936 205.666 273.812 206.135C273.689 206.597 273.627 207.089 273.627 207.609ZM284.906 202.434H286.713L286.557 206.389C286.518 207.391 286.404 208.257 286.215 208.986C286.026 209.715 285.785 210.337 285.492 210.852C285.199 211.359 284.87 211.786 284.506 212.131C284.148 212.476 283.777 212.766 283.393 213H282.494L282.543 211.525L282.914 211.516C283.129 211.262 283.337 211.001 283.539 210.734C283.741 210.461 283.926 210.139 284.096 209.768C284.265 209.39 284.405 208.931 284.516 208.391C284.633 207.844 284.708 207.176 284.74 206.389L284.906 202.434ZM285.355 202.434H291.713V213H289.906V204.104H285.355V202.434ZM282.084 211.516H293.07V216.115H291.264V213H283.891V216.115H282.074L282.084 211.516ZM301.303 211.193V205.754C301.303 205.337 301.218 204.976 301.049 204.67C300.886 204.357 300.639 204.117 300.307 203.947C299.975 203.778 299.564 203.693 299.076 203.693C298.62 203.693 298.22 203.771 297.875 203.928C297.536 204.084 297.27 204.289 297.074 204.543C296.885 204.797 296.791 205.07 296.791 205.363H294.984C294.984 204.986 295.082 204.611 295.277 204.24C295.473 203.869 295.753 203.534 296.117 203.234C296.488 202.928 296.931 202.688 297.445 202.512C297.966 202.329 298.546 202.238 299.184 202.238C299.952 202.238 300.629 202.368 301.215 202.629C301.807 202.889 302.27 203.283 302.602 203.811C302.94 204.331 303.109 204.986 303.109 205.773V210.695C303.109 211.047 303.139 211.421 303.197 211.818C303.262 212.215 303.357 212.557 303.48 212.844V213H301.596C301.505 212.792 301.433 212.515 301.381 212.17C301.329 211.818 301.303 211.493 301.303 211.193ZM301.615 206.594L301.635 207.863H299.809C299.294 207.863 298.835 207.906 298.432 207.99C298.028 208.068 297.689 208.189 297.416 208.352C297.143 208.514 296.934 208.719 296.791 208.967C296.648 209.208 296.576 209.491 296.576 209.816C296.576 210.148 296.651 210.451 296.801 210.725C296.951 210.998 297.175 211.216 297.475 211.379C297.781 211.535 298.155 211.613 298.598 211.613C299.151 211.613 299.639 211.496 300.062 211.262C300.486 211.027 300.821 210.741 301.068 210.402C301.322 210.064 301.459 209.735 301.479 209.416L302.25 210.285C302.204 210.559 302.081 210.861 301.879 211.193C301.677 211.525 301.407 211.844 301.068 212.15C300.736 212.45 300.339 212.701 299.877 212.902C299.421 213.098 298.907 213.195 298.334 213.195C297.618 213.195 296.99 213.055 296.449 212.775C295.915 212.495 295.499 212.121 295.199 211.652C294.906 211.177 294.76 210.646 294.76 210.061C294.76 209.494 294.87 208.996 295.092 208.566C295.313 208.13 295.632 207.769 296.049 207.482C296.465 207.189 296.967 206.968 297.553 206.818C298.139 206.669 298.793 206.594 299.516 206.594H301.615ZM310.912 208.352H307.445L307.426 206.906H310.258C310.818 206.906 311.283 206.851 311.654 206.74C312.032 206.63 312.315 206.464 312.504 206.242C312.693 206.021 312.787 205.747 312.787 205.422C312.787 205.168 312.732 204.947 312.621 204.758C312.517 204.562 312.357 204.403 312.143 204.279C311.928 204.149 311.661 204.055 311.342 203.996C311.029 203.931 310.661 203.898 310.238 203.898H307.924V213H306.117V202.434H310.238C310.909 202.434 311.511 202.492 312.045 202.609C312.585 202.727 313.044 202.906 313.422 203.146C313.806 203.381 314.099 203.68 314.301 204.045C314.503 204.41 314.604 204.839 314.604 205.334C314.604 205.653 314.538 205.956 314.408 206.242C314.278 206.529 314.086 206.783 313.832 207.004C313.578 207.225 313.266 207.408 312.895 207.551C312.523 207.688 312.097 207.775 311.615 207.814L310.912 208.352ZM310.912 213H306.791L307.689 211.535H310.912C311.413 211.535 311.83 211.473 312.162 211.35C312.494 211.219 312.742 211.037 312.904 210.803C313.074 210.562 313.158 210.275 313.158 209.943C313.158 209.611 313.074 209.328 312.904 209.094C312.742 208.853 312.494 208.671 312.162 208.547C311.83 208.417 311.413 208.352 310.912 208.352H308.168L308.188 206.906H311.615L312.27 207.453C312.849 207.499 313.34 207.642 313.744 207.883C314.148 208.124 314.454 208.43 314.662 208.801C314.87 209.165 314.975 209.562 314.975 209.992C314.975 210.487 314.88 210.923 314.691 211.301C314.509 211.678 314.242 211.994 313.891 212.248C313.539 212.495 313.113 212.684 312.611 212.814C312.11 212.938 311.544 213 310.912 213ZM323.627 211.193V205.754C323.627 205.337 323.542 204.976 323.373 204.67C323.21 204.357 322.963 204.117 322.631 203.947C322.299 203.778 321.889 203.693 321.4 203.693C320.945 203.693 320.544 203.771 320.199 203.928C319.861 204.084 319.594 204.289 319.398 204.543C319.21 204.797 319.115 205.07 319.115 205.363H317.309C317.309 204.986 317.406 204.611 317.602 204.24C317.797 203.869 318.077 203.534 318.441 203.234C318.812 202.928 319.255 202.688 319.77 202.512C320.29 202.329 320.87 202.238 321.508 202.238C322.276 202.238 322.953 202.368 323.539 202.629C324.132 202.889 324.594 203.283 324.926 203.811C325.264 204.331 325.434 204.986 325.434 205.773V210.695C325.434 211.047 325.463 211.421 325.521 211.818C325.587 212.215 325.681 212.557 325.805 212.844V213H323.92C323.829 212.792 323.757 212.515 323.705 212.17C323.653 211.818 323.627 211.493 323.627 211.193ZM323.939 206.594L323.959 207.863H322.133C321.618 207.863 321.16 207.906 320.756 207.99C320.352 208.068 320.014 208.189 319.74 208.352C319.467 208.514 319.258 208.719 319.115 208.967C318.972 209.208 318.9 209.491 318.9 209.816C318.9 210.148 318.975 210.451 319.125 210.725C319.275 210.998 319.499 211.216 319.799 211.379C320.105 211.535 320.479 211.613 320.922 211.613C321.475 211.613 321.964 211.496 322.387 211.262C322.81 211.027 323.145 210.741 323.393 210.402C323.646 210.064 323.783 209.735 323.803 209.416L324.574 210.285C324.529 210.559 324.405 210.861 324.203 211.193C324.001 211.525 323.731 211.844 323.393 212.15C323.061 212.45 322.663 212.701 322.201 212.902C321.745 213.098 321.231 213.195 320.658 213.195C319.942 213.195 319.314 213.055 318.773 212.775C318.24 212.495 317.823 212.121 317.523 211.652C317.23 211.177 317.084 210.646 317.084 210.061C317.084 209.494 317.195 208.996 317.416 208.566C317.637 208.13 317.956 207.769 318.373 207.482C318.79 207.189 319.291 206.968 319.877 206.818C320.463 206.669 321.117 206.594 321.84 206.594H323.939ZM335.443 207.014V208.479H329.857V207.014H335.443ZM330.238 202.434V213H328.432V202.434H330.238ZM336.908 202.434V213H335.092V202.434H336.908ZM341.771 210.139L346.645 202.434H348.461V213H346.645V205.295L341.771 213H339.975V202.434H341.771V210.139ZM353.5 207.961H355.453L352.396 213H350.443L353.5 207.961ZM355.014 202.434H359.428V213H357.621V203.898H355.014C354.499 203.898 354.079 203.986 353.754 204.162C353.428 204.331 353.191 204.553 353.041 204.826C352.891 205.1 352.816 205.383 352.816 205.676C352.816 205.962 352.885 206.239 353.021 206.506C353.158 206.766 353.373 206.981 353.666 207.15C353.959 207.32 354.337 207.404 354.799 207.404H358.109V208.889H354.799C354.193 208.889 353.656 208.807 353.188 208.645C352.719 208.482 352.322 208.257 351.996 207.971C351.671 207.678 351.423 207.336 351.254 206.945C351.085 206.548 351 206.118 351 205.656C351 205.194 351.088 204.768 351.264 204.377C351.446 203.986 351.706 203.645 352.045 203.352C352.39 203.059 352.81 202.834 353.305 202.678C353.806 202.515 354.376 202.434 355.014 202.434Z" fill="white"/>
<defs>
<filter id="filter0_f_90_6" x="0.719849" y="26.0034" width="265.492" height="282.945" filterUnits="userSpaceOnUse" color-interpolation-filters="sRGB">
<feFlood flood-opacity="0" result="BackgroundImageFix"/>
<feBlend mode="normal" in="SourceGraphic" in2="BackgroundImageFix" result="shape"/>
<feGaussianBlur stdDeviation="53.5" result="effect1_foregroundBlur_90_6"/>
</filter>
<filter id="filter1_f_90_6" x="13.5389" y="27.0703" width="280.024" height="353.97" filterUnits="userSpaceOnUse" color-interpolation-filters="sRGB">
<feFlood flood-opacity="0" result="BackgroundImageFix"/>
<feBlend mode="normal" in="SourceGraphic" in2="BackgroundImageFix" result="shape"/>
<feGaussianBlur stdDeviation="53.5" result="effect1_foregroundBlur_90_6"/>
</filter>
<filter id="filter2_f_90_6" x="63.8522" y="0.242737" width="261.795" height="270.296" filterUnits="userSpaceOnUse" color-interpolation-filters="sRGB">
<feFlood flood-opacity="0" result="BackgroundImageFix"/>
<feBlend mode="normal" in="SourceGraphic" in2="BackgroundImageFix" result="shape"/>
<feGaussianBlur stdDeviation="53.5" result="effect1_foregroundBlur_90_6"/>
</filter>
<filter id="filter3_ii_90_6" x="97.996" y="114.225" width="111.638" height="109.638" filterUnits="userSpaceOnUse" color-interpolation-filters="sRGB">
<feFlood flood-opacity="0" result="BackgroundImageFix"/>
<feBlend mode="normal" in="SourceGraphic" in2="BackgroundImageFix" result="shape"/>
<feColorMatrix in="SourceAlpha" type="matrix" values="0 0 0 0 0 0 0 0 0 0 0 0 0 0 0 0 0 0 127 0" result="hardAlpha"/>
<feOffset dx="-3" dy="-4"/>
<feGaussianBlur stdDeviation="9"/>
<feComposite in2="hardAlpha" operator="arithmetic" k2="-1" k3="1"/>
<feColorMatrix type="matrix" values="0 0 0 0 1 0 0 0 0 0.76425 0 0 0 0 0.4875 0 0 0 0.39 0"/>
<feBlend mode="normal" in2="shape" result="effect1_innerShadow_90_6"/>
<feColorMatrix in="SourceAlpha" type="matrix" values="0 0 0 0 0 0 0 0 0 0 0 0 0 0 0 0 0 0 127 0" result="hardAlpha"/>
<feOffset dx="3" dy="-2"/>
<feGaussianBlur stdDeviation="6"/>
<feComposite in2="hardAlpha" operator="arithmetic" k2="-1" k3="1"/>
<feColorMatrix type="matrix" values="0 0 0 0 1 0 0 0 0 1 0 0 0 0 1 0 0 0 1 0"/>
<feBlend mode="normal" in2="effect1_innerShadow_90_6" result="effect2_innerShadow_90_6"/>
</filter>
<filter id="filter4_f_90_6" x="-28.3378" y="68.288" width="361.4" height="389.855" filterUnits="userSpaceOnUse" color-interpolation-filters="sRGB">
<feFlood flood-opacity="0" result="BackgroundImageFix"/>
<feBlend mode="normal" in="SourceGraphic" in2="BackgroundImageFix" result="shape"/>
<feGaussianBlur stdDeviation="60" result="effect1_foregroundBlur_90_6"/>
</filter>
<filter id="filter5_ii_90_6" x="97.996" y="106.83" width="121.638" height="113.638" filterUnits="userSpaceOnUse" color-interpolation-filters="sRGB">
<feFlood flood-opacity="0" result="BackgroundImageFix"/>
<feBlend mode="normal" in="SourceGraphic" in2="BackgroundImageFix" result="shape"/>
<feColorMatrix in="SourceAlpha" type="matrix" values="0 0 0 0 0 0 0 0 0 0 0 0 0 0 0 0 0 0 127 0" result="hardAlpha"/>
<feOffset dx="13" dy="4"/>
<feGaussianBlur stdDeviation="10"/>
<feComposite in2="hardAlpha" operator="arithmetic" k2="-1" k3="1"/>
<feColorMatrix type="matrix" values="0 0 0 0 1 0 0 0 0 1 0 0 0 0 1 0 0 0 0.6 0"/>
<feBlend mode="normal" in2="shape" result="effect1_innerShadow_90_6"/>
<feColorMatrix in="SourceAlpha" type="matrix" values="0 0 0 0 0 0 0 0 0 0 0 0 0 0 0 0 0 0 127 0" result="hardAlpha"/>
<feOffset dx="-3" dy="-4"/>
<feGaussianBlur stdDeviation="9"/>
<feComposite in2="hardAlpha" operator="arithmetic" k2="-1" k3="1"/>
<feColorMatrix type="matrix" values="0 0 0 0 1 0 0 0 0 1 0 0 0 0 1 0 0 0 0.78 0"/>
<feBlend mode="normal" in2="effect1_innerShadow_90_6" result="effect2_innerShadow_90_6"/>
</filter>
<filter id="filter6_f_90_6" x="-31.3206" y="65.5139" width="414.414" height="414.414" filterUnits="userSpaceOnUse" color-interpolation-filters="sRGB">
<feFlood flood-opacity="0" result="BackgroundImageFix"/>
<feBlend mode="normal" in="SourceGraphic" in2="BackgroundImageFix" result="shape"/>
<feGaussianBlur stdDeviation="60" result="effect1_foregroundBlur_90_6"/>
</filter>
<filter id="filter7_f_90_6" x="-53.2106" y="-4.03314" width="367.882" height="367.882" filterUnits="userSpaceOnUse" color-interpolation-filters="sRGB">
<feFlood flood-opacity="0" result="BackgroundImageFix"/>
<feBlend mode="normal" in="SourceGraphic" in2="BackgroundImageFix" result="shape"/>
<feGaussianBlur stdDeviation="60" result="effect1_foregroundBlur_90_6"/>
</filter>
<filter id="filter8_f_90_6" x="87.9783" y="86.5916" width="354.28" height="356.81" filterUnits="userSpaceOnUse" color-interpolation-filters="sRGB">
<feFlood flood-opacity="0" result="BackgroundImageFix"/>
<feBlend mode="normal" in="SourceGraphic" in2="BackgroundImageFix" result="shape"/>
<feGaussianBlur stdDeviation="60" result="effect1_foregroundBlur_90_6"/>
</filter>
<filter id="filter9_f_90_6" x="93.1866" y="-26.7491" width="329.961" height="347.615" filterUnits="userSpaceOnUse" color-interpolation-filters="sRGB">
<feFlood flood-opacity="0" result="BackgroundImageFix"/>
<feBlend mode="normal" in="SourceGraphic" in2="BackgroundImageFix" result="shape"/>
<feGaussianBlur stdDeviation="60" result="effect1_foregroundBlur_90_6"/>
</filter>
<filter id="filter10_f_90_6" x="93.1865" y="-26.7491" width="329.961" height="347.615" filterUnits="userSpaceOnUse" color-interpolation-filters="sRGB">
<feFlood flood-opacity="0" result="BackgroundImageFix"/>
<feBlend mode="normal" in="SourceGraphic" in2="BackgroundImageFix" result="shape"/>
<feGaussianBlur stdDeviation="60" result="effect1_foregroundBlur_90_6"/>
</filter>
<filter id="filter11_d_90_6" x="109.804" y="139.03" width="88.6705" height="99.086" filterUnits="userSpaceOnUse" color-interpolation-filters="sRGB">
<feFlood flood-opacity="0" result="BackgroundImageFix"/>
<feColorMatrix in="SourceAlpha" type="matrix" values="0 0 0 0 0 0 0 0 0 0 0 0 0 0 0 0 0 0 127 0" result="hardAlpha"/>
<feOffset dy="36"/>
<feGaussianBlur stdDeviation="12"/>
<feComposite in2="hardAlpha" operator="out"/>
<feColorMatrix type="matrix" values="0 0 0 0 0.633333 0 0 0 0 0.184722 0 0 0 0 0.184722 0 0 0 0.5 0"/>
<feBlend mode="normal" in2="BackgroundImageFix" result="effect1_dropShadow_90_6"/>
<feBlend mode="normal" in="SourceGraphic" in2="effect1_dropShadow_90_6" result="shape"/>
</filter>
<filter id="filter12_ii_90_6" x="122.353" y="129.107" width="60.3364" height="56.9316" filterUnits="userSpaceOnUse" color-interpolation-filters="sRGB">
<feFlood flood-opacity="0" result="BackgroundImageFix"/>
<feBlend mode="normal" in="SourceGraphic" in2="BackgroundImageFix" result="shape"/>
<feColorMatrix in="SourceAlpha" type="matrix" values="0 0 0 0 0 0 0 0 0 0 0 0 0 0 0 0 0 0 127 0" result="hardAlpha"/>
<feOffset dy="-2"/>
<feGaussianBlur stdDeviation="13"/>
<feComposite in2="hardAlpha" operator="arithmetic" k2="-1" k3="1"/>
<feColorMatrix type="matrix" values="0 0 0 0 1 0 0 0 0 1 0 0 0 0 1 0 0 0 0.7 0"/>
<feBlend mode="normal" in2="shape" result="effect1_innerShadow_90_6"/>
<feColorMatrix in="SourceAlpha" type="matrix" values="0 0 0 0 0 0 0 0 0 0 0 0 0 0 0 0 0 0 127 0" result="hardAlpha"/>
<feOffset dx="-3"/>
<feGaussianBlur stdDeviation="11.5"/>
<feComposite in2="hardAlpha" operator="arithmetic" k2="-1" k3="1"/>
<feColorMatrix type="matrix" values="0 0 0 0 1 0 0 0 0 1 0 0 0 0 1 0 0 0 1 0"/>
<feBlend mode="normal" in2="effect1_innerShadow_90_6" result="effect2_innerShadow_90_6"/>
</filter>
<linearGradient id="paint0_linear_90_6" x1="166.025" y1="148.425" x2="144.207" y2="178.051" gradientUnits="userSpaceOnUse">
<stop stop-color="#FF6866"/>
<stop offset="1" stop-color="#A2A8FF"/>
</linearGradient>
<linearGradient id="paint1_linear_90_6" x1="170.777" y1="144.311" x2="140.142" y2="186.038" gradientUnits="userSpaceOnUse">
<stop stop-color="#FF6866"/>
<stop offset="1" stop-color="#A2A8FF"/>
</linearGradient>
<radialGradient id="paint2_radial_90_6" cx="0" cy="0" r="1" gradientUnits="userSpaceOnUse" gradientTransform="translate(141.28 145.811) rotate(45.5306) scale(44.9024 44.9793)">
<stop stop-color="white"/>
<stop offset="0.464944" stop-color="white" stop-opacity="0"/>
</radialGradient>
<clipPath id="clip0_90_6">
<rect x="100.996" y="118.225" width="105.638" height="105.638" rx="52.8189" fill="white"/>
</clipPath>
<clipPath id="clip1_90_6">
<rect x="100.996" y="110.83" width="105.638" height="105.638" rx="52.8189" fill="white"/>
</clipPath>
</defs>
</svg>
