<svg width="314" height="382" viewBox="0 0 314 382" fill="none" xmlns="http://www.w3.org/2000/svg">
<g filter="url(#filter0_f_90_7)">
<ellipse cx="140.555" cy="204.055" rx="33.0118" ry="69.985" fill="#FFA9B3" fill-opacity="0.65"/>
</g>
<g filter="url(#filter1_f_90_7)">
<ellipse cx="181.754" cy="135.391" rx="11.3561" ry="35.1246" transform="rotate(-39.2265 181.754 135.391)" fill="#EB00FF" fill-opacity="0.31"/>
</g>
<g filter="url(#filter2_ii_90_7)">
<g clip-path="url(#clip0_90_7)">
<rect x="88" y="118.225" width="105.638" height="105.638" rx="52.8189" fill="#F4F4F4"/>
<g opacity="0.8" filter="url(#filter3_f_90_7)">
<ellipse rx="45.9635" ry="84.7507" transform="matrix(-0.830673 0.556761 0.556761 0.830673 139.367 263.215)" fill="#FF4B60"/>
</g>
</g>
</g>
<g filter="url(#filter4_ii_90_7)">
<g clip-path="url(#clip1_90_7)">
<rect x="88" y="110.83" width="105.638" height="105.638" rx="52.8189" fill="#F4F4F4"/>
<g opacity="0.8" filter="url(#filter5_f_90_7)">
<ellipse rx="39.6393" ry="65.4152" transform="matrix(-0.639074 0.769145 0.769145 0.639074 244.646 151.123)" fill="url(#paint0_radial_90_7)"/>
</g>
<g opacity="0.8" filter="url(#filter6_f_90_7)">
<ellipse rx="39.6393" ry="65.4152" transform="matrix(-0.639074 0.769145 0.769145 0.639074 93.6463 287.123)" fill="#FFF6A9"/>
</g>
<g opacity="0.8" filter="url(#filter7_f_90_7)">
<ellipse rx="45.9635" ry="84.7507" transform="matrix(-0.830673 0.556761 0.556761 0.830673 142.367 214.821)" fill="#FFA9B3"/>
</g>
<g filter="url(#filter8_d_90_7)">
<path d="M140.819 144.596C126.977 130.707 114.337 144.765 117.557 156.532C117.557 156.532 119.023 163.573 129.717 170.928C132.504 172.833 135.917 174.786 140.098 176.691C140.555 176.908 141.083 176.908 141.54 176.691C145.721 174.786 149.133 172.833 151.921 170.928C162.615 163.573 164.081 156.532 164.081 156.532C167.301 144.765 154.661 130.707 140.819 144.596Z" fill="url(#paint1_linear_90_7)"/>
</g>
<g filter="url(#filter9_ddi_90_7)">
<path d="M140.879 140.57C122.696 122.387 106.092 140.791 110.322 156.196C110.322 156.196 112.247 165.414 126.295 175.042C129.957 177.536 134.439 180.093 139.932 182.587C140.532 182.871 141.226 182.871 141.826 182.587C147.319 180.093 151.801 177.536 155.463 175.042C169.511 165.414 171.436 156.196 171.436 156.196C175.666 140.791 159.062 122.387 140.879 140.57Z" fill="url(#paint2_linear_90_7)"/>
</g>
<g filter="url(#filter10_f_90_7)">
<ellipse cx="203.166" cy="229.811" rx="3.77019" ry="23.7859" transform="rotate(48.6663 203.166 229.811)" fill="white"/>
</g>
</g>
</g>
<path d="M239.531 158.5V163H216.656V159.133L227.766 147.016C228.984 145.641 229.945 144.453 230.648 143.453C231.352 142.453 231.844 141.555 232.125 140.758C232.422 139.945 232.57 139.156 232.57 138.391C232.57 137.312 232.367 136.367 231.961 135.555C231.57 134.727 230.992 134.078 230.227 133.609C229.461 133.125 228.531 132.883 227.438 132.883C226.172 132.883 225.109 133.156 224.25 133.703C223.391 134.25 222.742 135.008 222.305 135.977C221.867 136.93 221.648 138.023 221.648 139.258H216C216 137.273 216.453 135.461 217.359 133.82C218.266 132.164 219.578 130.852 221.297 129.883C223.016 128.898 225.086 128.406 227.508 128.406C229.789 128.406 231.727 128.789 233.32 129.555C234.914 130.32 236.125 131.406 236.953 132.812C237.797 134.219 238.219 135.883 238.219 137.805C238.219 138.867 238.047 139.922 237.703 140.969C237.359 142.016 236.867 143.062 236.227 144.109C235.602 145.141 234.859 146.18 234 147.227C233.141 148.258 232.195 149.305 231.164 150.367L223.781 158.5H239.531ZM266.602 128.875V131.969L252.961 163H247.008L260.625 133.375H242.953V128.875H266.602ZM288.281 128.664H288.984V133.281H288.586C286.57 133.281 284.828 133.594 283.359 134.219C281.906 134.844 280.711 135.703 279.773 136.797C278.836 137.891 278.133 139.172 277.664 140.641C277.211 142.094 276.984 143.641 276.984 145.281V150.648C276.984 152.008 277.133 153.211 277.43 154.258C277.727 155.289 278.141 156.156 278.672 156.859C279.219 157.547 279.844 158.07 280.547 158.43C281.25 158.789 282.008 158.969 282.82 158.969C283.664 158.969 284.43 158.797 285.117 158.453C285.805 158.094 286.391 157.602 286.875 156.977C287.359 156.352 287.727 155.609 287.977 154.75C288.227 153.891 288.352 152.953 288.352 151.938C288.352 150.969 288.227 150.062 287.977 149.219C287.742 148.359 287.391 147.609 286.922 146.969C286.453 146.312 285.867 145.805 285.164 145.445C284.477 145.07 283.68 144.883 282.773 144.883C281.648 144.883 280.625 145.148 279.703 145.68C278.797 146.211 278.062 146.906 277.5 147.766C276.953 148.609 276.656 149.508 276.609 150.461L274.453 149.758C274.578 148.305 274.898 147 275.414 145.844C275.945 144.688 276.641 143.703 277.5 142.891C278.359 142.078 279.352 141.461 280.477 141.039C281.617 140.602 282.867 140.383 284.227 140.383C285.883 140.383 287.32 140.695 288.539 141.32C289.758 141.945 290.766 142.797 291.562 143.875C292.375 144.938 292.977 146.156 293.367 147.531C293.773 148.891 293.977 150.312 293.977 151.797C293.977 153.438 293.727 154.969 293.227 156.391C292.727 157.797 291.992 159.031 291.023 160.094C290.07 161.156 288.906 161.984 287.531 162.578C286.172 163.172 284.625 163.469 282.891 163.469C281.062 163.469 279.43 163.117 277.992 162.414C276.57 161.711 275.359 160.742 274.359 159.508C273.375 158.273 272.625 156.852 272.109 155.242C271.594 153.633 271.336 151.93 271.336 150.133V147.789C271.336 145.195 271.664 142.75 272.32 140.453C272.977 138.141 273.984 136.102 275.344 134.336C276.719 132.57 278.477 131.188 280.617 130.188C282.758 129.172 285.312 128.664 288.281 128.664Z" fill="white"/>
<path d="M215.898 179.834V179.609C215.898 178.848 216.009 178.141 216.23 177.49C216.452 176.833 216.771 176.263 217.188 175.781C217.604 175.293 218.109 174.915 218.701 174.648C219.294 174.375 219.958 174.238 220.693 174.238C221.436 174.238 222.103 174.375 222.695 174.648C223.294 174.915 223.802 175.293 224.219 175.781C224.642 176.263 224.964 176.833 225.186 177.49C225.407 178.141 225.518 178.848 225.518 179.609V179.834C225.518 180.596 225.407 181.302 225.186 181.953C224.964 182.604 224.642 183.174 224.219 183.662C223.802 184.144 223.298 184.521 222.705 184.795C222.119 185.062 221.455 185.195 220.713 185.195C219.971 185.195 219.303 185.062 218.711 184.795C218.118 184.521 217.611 184.144 217.188 183.662C216.771 183.174 216.452 182.604 216.23 181.953C216.009 181.302 215.898 180.596 215.898 179.834ZM217.705 179.609V179.834C217.705 180.361 217.767 180.859 217.891 181.328C218.014 181.79 218.2 182.201 218.447 182.559C218.701 182.917 219.017 183.2 219.395 183.408C219.772 183.61 220.212 183.711 220.713 183.711C221.208 183.711 221.641 183.61 222.012 183.408C222.389 183.2 222.702 182.917 222.949 182.559C223.197 182.201 223.382 181.79 223.506 181.328C223.636 180.859 223.701 180.361 223.701 179.834V179.609C223.701 179.089 223.636 178.597 223.506 178.135C223.382 177.666 223.193 177.253 222.939 176.895C222.692 176.53 222.38 176.243 222.002 176.035C221.631 175.827 221.195 175.723 220.693 175.723C220.199 175.723 219.762 175.827 219.385 176.035C219.014 176.243 218.701 176.53 218.447 176.895C218.2 177.253 218.014 177.666 217.891 178.135C217.767 178.597 217.705 179.089 217.705 179.609ZM231.875 174.434V185H230.059V174.434H231.875ZM235.42 174.434V175.898H226.582V174.434H235.42ZM241.143 179.951H239.199V178.838H240.996C241.497 178.838 241.895 178.776 242.188 178.652C242.48 178.522 242.689 178.343 242.812 178.115C242.936 177.887 242.998 177.62 242.998 177.314C242.998 177.041 242.926 176.784 242.783 176.543C242.646 176.296 242.425 176.097 242.119 175.947C241.813 175.791 241.403 175.713 240.889 175.713C240.472 175.713 240.094 175.788 239.756 175.938C239.417 176.081 239.147 176.279 238.945 176.533C238.75 176.781 238.652 177.061 238.652 177.373H236.846C236.846 176.729 237.028 176.175 237.393 175.713C237.764 175.244 238.255 174.883 238.867 174.629C239.486 174.375 240.16 174.248 240.889 174.248C241.501 174.248 242.048 174.316 242.529 174.453C243.018 174.583 243.431 174.779 243.77 175.039C244.108 175.293 244.365 175.612 244.541 175.996C244.723 176.374 244.814 176.813 244.814 177.314C244.814 177.673 244.73 178.011 244.561 178.33C244.391 178.649 244.147 178.932 243.828 179.18C243.509 179.421 243.122 179.609 242.666 179.746C242.217 179.883 241.709 179.951 241.143 179.951ZM239.199 179.268H241.143C241.774 179.268 242.331 179.329 242.812 179.453C243.294 179.57 243.698 179.746 244.023 179.98C244.349 180.215 244.593 180.505 244.756 180.85C244.925 181.188 245.01 181.579 245.01 182.021C245.01 182.516 244.909 182.962 244.707 183.359C244.512 183.75 244.232 184.082 243.867 184.355C243.503 184.629 243.066 184.837 242.559 184.98C242.057 185.124 241.501 185.195 240.889 185.195C240.205 185.195 239.541 185.078 238.896 184.844C238.252 184.609 237.721 184.248 237.305 183.76C236.888 183.265 236.68 182.637 236.68 181.875H238.486C238.486 182.194 238.587 182.497 238.789 182.783C238.991 183.07 239.271 183.301 239.629 183.477C239.993 183.652 240.413 183.74 240.889 183.74C241.396 183.74 241.82 183.662 242.158 183.506C242.497 183.35 242.751 183.141 242.92 182.881C243.096 182.62 243.184 182.337 243.184 182.031C243.184 181.634 243.105 181.315 242.949 181.074C242.793 180.833 242.552 180.658 242.227 180.547C241.908 180.43 241.497 180.371 240.996 180.371H239.199V179.268ZM248.838 178.066H252.012C252.865 178.066 253.584 178.216 254.17 178.516C254.756 178.809 255.199 179.215 255.498 179.736C255.804 180.251 255.957 180.837 255.957 181.494C255.957 181.982 255.872 182.441 255.703 182.871C255.534 183.294 255.28 183.665 254.941 183.984C254.609 184.303 254.196 184.554 253.701 184.736C253.213 184.912 252.65 185 252.012 185H247.52V174.434H249.326V183.516H252.012C252.533 183.516 252.949 183.421 253.262 183.232C253.574 183.044 253.799 182.799 253.936 182.5C254.072 182.201 254.141 181.888 254.141 181.562C254.141 181.243 254.072 180.931 253.936 180.625C253.799 180.319 253.574 180.065 253.262 179.863C252.949 179.655 252.533 179.551 252.012 179.551H248.838V178.066ZM259.717 174.434V185H257.91V174.434H259.717ZM267.842 180.352H264.375L264.355 178.906H267.188C267.747 178.906 268.213 178.851 268.584 178.74C268.962 178.63 269.245 178.464 269.434 178.242C269.622 178.021 269.717 177.747 269.717 177.422C269.717 177.168 269.661 176.947 269.551 176.758C269.447 176.562 269.287 176.403 269.072 176.279C268.857 176.149 268.59 176.055 268.271 175.996C267.959 175.931 267.591 175.898 267.168 175.898H264.854V185H263.047V174.434H267.168C267.839 174.434 268.441 174.492 268.975 174.609C269.515 174.727 269.974 174.906 270.352 175.146C270.736 175.381 271.029 175.68 271.23 176.045C271.432 176.41 271.533 176.839 271.533 177.334C271.533 177.653 271.468 177.956 271.338 178.242C271.208 178.529 271.016 178.783 270.762 179.004C270.508 179.225 270.195 179.408 269.824 179.551C269.453 179.688 269.027 179.775 268.545 179.814L267.842 180.352ZM267.842 185H263.721L264.619 183.535H267.842C268.343 183.535 268.76 183.473 269.092 183.35C269.424 183.219 269.671 183.037 269.834 182.803C270.003 182.562 270.088 182.275 270.088 181.943C270.088 181.611 270.003 181.328 269.834 181.094C269.671 180.853 269.424 180.671 269.092 180.547C268.76 180.417 268.343 180.352 267.842 180.352H265.098L265.117 178.906H268.545L269.199 179.453C269.779 179.499 270.27 179.642 270.674 179.883C271.077 180.124 271.383 180.43 271.592 180.801C271.8 181.165 271.904 181.562 271.904 181.992C271.904 182.487 271.81 182.923 271.621 183.301C271.439 183.678 271.172 183.994 270.82 184.248C270.469 184.495 270.042 184.684 269.541 184.814C269.04 184.938 268.473 185 267.842 185ZM273.848 179.834V179.609C273.848 178.848 273.958 178.141 274.18 177.49C274.401 176.833 274.72 176.263 275.137 175.781C275.553 175.293 276.058 174.915 276.65 174.648C277.243 174.375 277.907 174.238 278.643 174.238C279.385 174.238 280.052 174.375 280.645 174.648C281.243 174.915 281.751 175.293 282.168 175.781C282.591 176.263 282.913 176.833 283.135 177.49C283.356 178.141 283.467 178.848 283.467 179.609V179.834C283.467 180.596 283.356 181.302 283.135 181.953C282.913 182.604 282.591 183.174 282.168 183.662C281.751 184.144 281.247 184.521 280.654 184.795C280.068 185.062 279.404 185.195 278.662 185.195C277.92 185.195 277.253 185.062 276.66 184.795C276.068 184.521 275.56 184.144 275.137 183.662C274.72 183.174 274.401 182.604 274.18 181.953C273.958 181.302 273.848 180.596 273.848 179.834ZM275.654 179.609V179.834C275.654 180.361 275.716 180.859 275.84 181.328C275.964 181.79 276.149 182.201 276.396 182.559C276.65 182.917 276.966 183.2 277.344 183.408C277.721 183.61 278.161 183.711 278.662 183.711C279.157 183.711 279.59 183.61 279.961 183.408C280.339 183.2 280.651 182.917 280.898 182.559C281.146 182.201 281.331 181.79 281.455 181.328C281.585 180.859 281.65 180.361 281.65 179.834V179.609C281.65 179.089 281.585 178.597 281.455 178.135C281.331 177.666 281.143 177.253 280.889 176.895C280.641 176.53 280.329 176.243 279.951 176.035C279.58 175.827 279.144 175.723 278.643 175.723C278.148 175.723 277.712 175.827 277.334 176.035C276.963 176.243 276.65 176.53 276.396 176.895C276.149 177.253 275.964 177.666 275.84 178.135C275.716 178.597 275.654 179.089 275.654 179.609ZM290.693 180.352H287.227L287.207 178.906H290.039C290.599 178.906 291.064 178.851 291.436 178.74C291.813 178.63 292.096 178.464 292.285 178.242C292.474 178.021 292.568 177.747 292.568 177.422C292.568 177.168 292.513 176.947 292.402 176.758C292.298 176.562 292.139 176.403 291.924 176.279C291.709 176.149 291.442 176.055 291.123 175.996C290.811 175.931 290.443 175.898 290.02 175.898H287.705V185H285.898V174.434H290.02C290.69 174.434 291.292 174.492 291.826 174.609C292.367 174.727 292.826 174.906 293.203 175.146C293.587 175.381 293.88 175.68 294.082 176.045C294.284 176.41 294.385 176.839 294.385 177.334C294.385 177.653 294.32 177.956 294.189 178.242C294.059 178.529 293.867 178.783 293.613 179.004C293.359 179.225 293.047 179.408 292.676 179.551C292.305 179.688 291.878 179.775 291.396 179.814L290.693 180.352ZM290.693 185H286.572L287.471 183.535H290.693C291.195 183.535 291.611 183.473 291.943 183.35C292.275 183.219 292.523 183.037 292.686 182.803C292.855 182.562 292.939 182.275 292.939 181.943C292.939 181.611 292.855 181.328 292.686 181.094C292.523 180.853 292.275 180.671 291.943 180.547C291.611 180.417 291.195 180.352 290.693 180.352H287.949L287.969 178.906H291.396L292.051 179.453C292.63 179.499 293.122 179.642 293.525 179.883C293.929 180.124 294.235 180.43 294.443 180.801C294.652 181.165 294.756 181.562 294.756 181.992C294.756 182.487 294.661 182.923 294.473 183.301C294.29 183.678 294.023 183.994 293.672 184.248C293.32 184.495 292.894 184.684 292.393 184.814C291.891 184.938 291.325 185 290.693 185ZM223.545 202.014V203.479H217.959V202.014H223.545ZM218.34 197.434V208H216.533V197.434H218.34ZM225.01 197.434V208H223.193V197.434H225.01ZM234.15 206.193V200.754C234.15 200.337 234.066 199.976 233.896 199.67C233.734 199.357 233.486 199.117 233.154 198.947C232.822 198.778 232.412 198.693 231.924 198.693C231.468 198.693 231.068 198.771 230.723 198.928C230.384 199.084 230.117 199.289 229.922 199.543C229.733 199.797 229.639 200.07 229.639 200.363H227.832C227.832 199.986 227.93 199.611 228.125 199.24C228.32 198.869 228.6 198.534 228.965 198.234C229.336 197.928 229.779 197.688 230.293 197.512C230.814 197.329 231.393 197.238 232.031 197.238C232.799 197.238 233.477 197.368 234.062 197.629C234.655 197.889 235.117 198.283 235.449 198.811C235.788 199.331 235.957 199.986 235.957 200.773V205.695C235.957 206.047 235.986 206.421 236.045 206.818C236.11 207.215 236.204 207.557 236.328 207.844V208H234.443C234.352 207.792 234.281 207.515 234.229 207.17C234.176 206.818 234.15 206.493 234.15 206.193ZM234.463 201.594L234.482 202.863H232.656C232.142 202.863 231.683 202.906 231.279 202.99C230.876 203.068 230.537 203.189 230.264 203.352C229.99 203.514 229.782 203.719 229.639 203.967C229.495 204.208 229.424 204.491 229.424 204.816C229.424 205.148 229.499 205.451 229.648 205.725C229.798 205.998 230.023 206.216 230.322 206.379C230.628 206.535 231.003 206.613 231.445 206.613C231.999 206.613 232.487 206.496 232.91 206.262C233.333 206.027 233.669 205.741 233.916 205.402C234.17 205.064 234.307 204.735 234.326 204.416L235.098 205.285C235.052 205.559 234.928 205.861 234.727 206.193C234.525 206.525 234.255 206.844 233.916 207.15C233.584 207.45 233.187 207.701 232.725 207.902C232.269 208.098 231.755 208.195 231.182 208.195C230.465 208.195 229.837 208.055 229.297 207.775C228.763 207.495 228.346 207.121 228.047 206.652C227.754 206.177 227.607 205.646 227.607 205.061C227.607 204.494 227.718 203.996 227.939 203.566C228.161 203.13 228.48 202.769 228.896 202.482C229.313 202.189 229.814 201.968 230.4 201.818C230.986 201.669 231.641 201.594 232.363 201.594H234.463ZM245.85 201.232L244.404 200.861L245.117 193.781H252.412V195.451H246.65L246.221 199.318C246.481 199.169 246.81 199.029 247.207 198.898C247.611 198.768 248.073 198.703 248.594 198.703C249.251 198.703 249.84 198.817 250.361 199.045C250.882 199.266 251.325 199.585 251.689 200.002C252.061 200.419 252.344 200.92 252.539 201.506C252.734 202.092 252.832 202.746 252.832 203.469C252.832 204.152 252.738 204.781 252.549 205.354C252.367 205.926 252.09 206.428 251.719 206.857C251.348 207.281 250.879 207.609 250.312 207.844C249.753 208.078 249.092 208.195 248.33 208.195C247.757 208.195 247.214 208.117 246.699 207.961C246.191 207.798 245.736 207.554 245.332 207.229C244.935 206.896 244.609 206.486 244.355 205.998C244.108 205.503 243.952 204.924 243.887 204.26H245.605C245.684 204.794 245.84 205.243 246.074 205.607C246.309 205.972 246.615 206.249 246.992 206.438C247.376 206.62 247.822 206.711 248.33 206.711C248.76 206.711 249.141 206.636 249.473 206.486C249.805 206.337 250.085 206.122 250.312 205.842C250.54 205.562 250.713 205.223 250.83 204.826C250.954 204.429 251.016 203.983 251.016 203.488C251.016 203.039 250.954 202.622 250.83 202.238C250.706 201.854 250.521 201.519 250.273 201.232C250.033 200.946 249.736 200.725 249.385 200.568C249.033 200.406 248.63 200.324 248.174 200.324C247.568 200.324 247.109 200.406 246.797 200.568C246.491 200.731 246.175 200.952 245.85 201.232ZM263.916 202.951H261.973V201.838H263.77C264.271 201.838 264.668 201.776 264.961 201.652C265.254 201.522 265.462 201.343 265.586 201.115C265.71 200.887 265.771 200.62 265.771 200.314C265.771 200.041 265.7 199.784 265.557 199.543C265.42 199.296 265.199 199.097 264.893 198.947C264.587 198.791 264.176 198.713 263.662 198.713C263.245 198.713 262.868 198.788 262.529 198.938C262.191 199.081 261.921 199.279 261.719 199.533C261.523 199.781 261.426 200.061 261.426 200.373H259.619C259.619 199.729 259.801 199.175 260.166 198.713C260.537 198.244 261.029 197.883 261.641 197.629C262.259 197.375 262.933 197.248 263.662 197.248C264.274 197.248 264.821 197.316 265.303 197.453C265.791 197.583 266.204 197.779 266.543 198.039C266.882 198.293 267.139 198.612 267.314 198.996C267.497 199.374 267.588 199.813 267.588 200.314C267.588 200.673 267.503 201.011 267.334 201.33C267.165 201.649 266.921 201.932 266.602 202.18C266.283 202.421 265.895 202.609 265.439 202.746C264.99 202.883 264.482 202.951 263.916 202.951ZM261.973 202.268H263.916C264.548 202.268 265.104 202.329 265.586 202.453C266.068 202.57 266.471 202.746 266.797 202.98C267.122 203.215 267.367 203.505 267.529 203.85C267.699 204.188 267.783 204.579 267.783 205.021C267.783 205.516 267.682 205.962 267.48 206.359C267.285 206.75 267.005 207.082 266.641 207.355C266.276 207.629 265.84 207.837 265.332 207.98C264.831 208.124 264.274 208.195 263.662 208.195C262.979 208.195 262.314 208.078 261.67 207.844C261.025 207.609 260.495 207.248 260.078 206.76C259.661 206.265 259.453 205.637 259.453 204.875H261.26C261.26 205.194 261.361 205.497 261.562 205.783C261.764 206.07 262.044 206.301 262.402 206.477C262.767 206.652 263.187 206.74 263.662 206.74C264.17 206.74 264.593 206.662 264.932 206.506C265.27 206.35 265.524 206.141 265.693 205.881C265.869 205.62 265.957 205.337 265.957 205.031C265.957 204.634 265.879 204.315 265.723 204.074C265.566 203.833 265.326 203.658 265 203.547C264.681 203.43 264.271 203.371 263.77 203.371H261.973V202.268ZM275.088 203.352H271.621L271.602 201.906H274.434C274.993 201.906 275.459 201.851 275.83 201.74C276.208 201.63 276.491 201.464 276.68 201.242C276.868 201.021 276.963 200.747 276.963 200.422C276.963 200.168 276.908 199.947 276.797 199.758C276.693 199.562 276.533 199.403 276.318 199.279C276.104 199.149 275.837 199.055 275.518 198.996C275.205 198.931 274.837 198.898 274.414 198.898H272.1V208H270.293V197.434H274.414C275.085 197.434 275.687 197.492 276.221 197.609C276.761 197.727 277.22 197.906 277.598 198.146C277.982 198.381 278.275 198.68 278.477 199.045C278.678 199.41 278.779 199.839 278.779 200.334C278.779 200.653 278.714 200.956 278.584 201.242C278.454 201.529 278.262 201.783 278.008 202.004C277.754 202.225 277.441 202.408 277.07 202.551C276.699 202.688 276.273 202.775 275.791 202.814L275.088 203.352ZM275.088 208H270.967L271.865 206.535H275.088C275.589 206.535 276.006 206.473 276.338 206.35C276.67 206.219 276.917 206.037 277.08 205.803C277.249 205.562 277.334 205.275 277.334 204.943C277.334 204.611 277.249 204.328 277.08 204.094C276.917 203.853 276.67 203.671 276.338 203.547C276.006 203.417 275.589 203.352 275.088 203.352H272.344L272.363 201.906H275.791L276.445 202.453C277.025 202.499 277.516 202.642 277.92 202.883C278.324 203.124 278.63 203.43 278.838 203.801C279.046 204.165 279.15 204.562 279.15 204.992C279.15 205.487 279.056 205.923 278.867 206.301C278.685 206.678 278.418 206.994 278.066 207.248C277.715 207.495 277.288 207.684 276.787 207.814C276.286 207.938 275.719 208 275.088 208ZM285.957 208.195C285.221 208.195 284.554 208.072 283.955 207.824C283.363 207.57 282.852 207.215 282.422 206.76C281.999 206.304 281.673 205.764 281.445 205.139C281.217 204.514 281.104 203.83 281.104 203.088V202.678C281.104 201.818 281.23 201.053 281.484 200.383C281.738 199.706 282.083 199.133 282.52 198.664C282.956 198.195 283.451 197.84 284.004 197.6C284.557 197.359 285.13 197.238 285.723 197.238C286.478 197.238 287.129 197.368 287.676 197.629C288.229 197.889 288.682 198.254 289.033 198.723C289.385 199.185 289.645 199.732 289.814 200.363C289.984 200.988 290.068 201.672 290.068 202.414V203.225H282.178V201.75H288.262V201.613C288.236 201.145 288.138 200.689 287.969 200.246C287.806 199.803 287.546 199.439 287.188 199.152C286.829 198.866 286.341 198.723 285.723 198.723C285.312 198.723 284.935 198.811 284.59 198.986C284.245 199.156 283.949 199.41 283.701 199.748C283.454 200.087 283.262 200.5 283.125 200.988C282.988 201.477 282.92 202.04 282.92 202.678V203.088C282.92 203.589 282.988 204.061 283.125 204.504C283.268 204.94 283.473 205.324 283.74 205.656C284.014 205.988 284.342 206.249 284.727 206.438C285.117 206.626 285.56 206.721 286.055 206.721C286.693 206.721 287.233 206.59 287.676 206.33C288.118 206.07 288.506 205.721 288.838 205.285L289.932 206.154C289.704 206.499 289.414 206.828 289.062 207.141C288.711 207.453 288.278 207.707 287.764 207.902C287.256 208.098 286.654 208.195 285.957 208.195ZM282.568 194.611C282.568 194.318 282.66 194.071 282.842 193.869C283.024 193.667 283.288 193.566 283.633 193.566C283.984 193.566 284.251 193.667 284.434 193.869C284.616 194.071 284.707 194.318 284.707 194.611C284.707 194.891 284.616 195.132 284.434 195.334C284.251 195.529 283.984 195.627 283.633 195.627C283.288 195.627 283.024 195.529 282.842 195.334C282.66 195.132 282.568 194.891 282.568 194.611ZM286.777 194.631C286.777 194.338 286.865 194.09 287.041 193.889C287.223 193.687 287.49 193.586 287.842 193.586C288.187 193.586 288.451 193.687 288.633 193.889C288.822 194.09 288.916 194.338 288.916 194.631C288.916 194.911 288.822 195.152 288.633 195.354C288.451 195.549 288.187 195.646 287.842 195.646C287.49 195.646 287.223 195.549 287.041 195.354C286.865 195.152 286.777 194.911 286.777 194.631ZM296.123 202.951H294.18V201.838H295.977C296.478 201.838 296.875 201.776 297.168 201.652C297.461 201.522 297.669 201.343 297.793 201.115C297.917 200.887 297.979 200.62 297.979 200.314C297.979 200.041 297.907 199.784 297.764 199.543C297.627 199.296 297.406 199.097 297.1 198.947C296.794 198.791 296.383 198.713 295.869 198.713C295.452 198.713 295.075 198.788 294.736 198.938C294.398 199.081 294.128 199.279 293.926 199.533C293.73 199.781 293.633 200.061 293.633 200.373H291.826C291.826 199.729 292.008 199.175 292.373 198.713C292.744 198.244 293.236 197.883 293.848 197.629C294.466 197.375 295.14 197.248 295.869 197.248C296.481 197.248 297.028 197.316 297.51 197.453C297.998 197.583 298.411 197.779 298.75 198.039C299.089 198.293 299.346 198.612 299.521 198.996C299.704 199.374 299.795 199.813 299.795 200.314C299.795 200.673 299.71 201.011 299.541 201.33C299.372 201.649 299.128 201.932 298.809 202.18C298.49 202.421 298.102 202.609 297.646 202.746C297.197 202.883 296.689 202.951 296.123 202.951ZM294.18 202.268H296.123C296.755 202.268 297.311 202.329 297.793 202.453C298.275 202.57 298.678 202.746 299.004 202.98C299.329 203.215 299.574 203.505 299.736 203.85C299.906 204.188 299.99 204.579 299.99 205.021C299.99 205.516 299.889 205.962 299.688 206.359C299.492 206.75 299.212 207.082 298.848 207.355C298.483 207.629 298.047 207.837 297.539 207.98C297.038 208.124 296.481 208.195 295.869 208.195C295.186 208.195 294.521 208.078 293.877 207.844C293.232 207.609 292.702 207.248 292.285 206.76C291.868 206.265 291.66 205.637 291.66 204.875H293.467C293.467 205.194 293.568 205.497 293.77 205.783C293.971 206.07 294.251 206.301 294.609 206.477C294.974 206.652 295.394 206.74 295.869 206.74C296.377 206.74 296.8 206.662 297.139 206.506C297.477 206.35 297.731 206.141 297.9 205.881C298.076 205.62 298.164 205.337 298.164 205.031C298.164 204.634 298.086 204.315 297.93 204.074C297.773 203.833 297.533 203.658 297.207 203.547C296.888 203.43 296.478 203.371 295.977 203.371H294.18V202.268ZM304.238 197.434H306.045L305.889 201.389C305.85 202.391 305.736 203.257 305.547 203.986C305.358 204.715 305.117 205.337 304.824 205.852C304.531 206.359 304.202 206.786 303.838 207.131C303.48 207.476 303.109 207.766 302.725 208H301.826L301.875 206.525L302.246 206.516C302.461 206.262 302.669 206.001 302.871 205.734C303.073 205.461 303.258 205.139 303.428 204.768C303.597 204.39 303.737 203.931 303.848 203.391C303.965 202.844 304.04 202.176 304.072 201.389L304.238 197.434ZM304.688 197.434H311.045V208H309.238V199.104H304.688V197.434ZM301.416 206.516H312.402V211.115H310.596V208H303.223V211.115H301.406L301.416 206.516Z" fill="white"/>
<defs>
<filter id="filter0_f_90_7" x="0.543007" y="27.0703" width="280.024" height="353.97" filterUnits="userSpaceOnUse" color-interpolation-filters="sRGB">
<feFlood flood-opacity="0" result="BackgroundImageFix"/>
<feBlend mode="normal" in="SourceGraphic" in2="BackgroundImageFix" result="shape"/>
<feGaussianBlur stdDeviation="53.5" result="effect1_foregroundBlur_90_7"/>
</filter>
<filter id="filter1_f_90_7" x="50.8562" y="0.242737" width="261.795" height="270.296" filterUnits="userSpaceOnUse" color-interpolation-filters="sRGB">
<feFlood flood-opacity="0" result="BackgroundImageFix"/>
<feBlend mode="normal" in="SourceGraphic" in2="BackgroundImageFix" result="shape"/>
<feGaussianBlur stdDeviation="53.5" result="effect1_foregroundBlur_90_7"/>
</filter>
<filter id="filter2_ii_90_7" x="85" y="114.225" width="111.638" height="109.638" filterUnits="userSpaceOnUse" color-interpolation-filters="sRGB">
<feFlood flood-opacity="0" result="BackgroundImageFix"/>
<feBlend mode="normal" in="SourceGraphic" in2="BackgroundImageFix" result="shape"/>
<feColorMatrix in="SourceAlpha" type="matrix" values="0 0 0 0 0 0 0 0 0 0 0 0 0 0 0 0 0 0 127 0" result="hardAlpha"/>
<feOffset dx="-3" dy="-4"/>
<feGaussianBlur stdDeviation="9"/>
<feComposite in2="hardAlpha" operator="arithmetic" k2="-1" k3="1"/>
<feColorMatrix type="matrix" values="0 0 0 0 1 0 0 0 0 0.76425 0 0 0 0 0.4875 0 0 0 0.39 0"/>
<feBlend mode="normal" in2="shape" result="effect1_innerShadow_90_7"/>
<feColorMatrix in="SourceAlpha" type="matrix" values="0 0 0 0 0 0 0 0 0 0 0 0 0 0 0 0 0 0 127 0" result="hardAlpha"/>
<feOffset dx="3" dy="-2"/>
<feGaussianBlur stdDeviation="6"/>
<feComposite in2="hardAlpha" operator="arithmetic" k2="-1" k3="1"/>
<feColorMatrix type="matrix" values="0 0 0 0 1 0 0 0 0 1 0 0 0 0 1 0 0 0 1 0"/>
<feBlend mode="normal" in2="effect1_innerShadow_90_7" result="effect2_innerShadow_90_7"/>
</filter>
<filter id="filter3_f_90_7" x="-41.3337" y="68.288" width="361.4" height="389.855" filterUnits="userSpaceOnUse" color-interpolation-filters="sRGB">
<feFlood flood-opacity="0" result="BackgroundImageFix"/>
<feBlend mode="normal" in="SourceGraphic" in2="BackgroundImageFix" result="shape"/>
<feGaussianBlur stdDeviation="60" result="effect1_foregroundBlur_90_7"/>
</filter>
<filter id="filter4_ii_90_7" x="85" y="106.83" width="121.638" height="113.638" filterUnits="userSpaceOnUse" color-interpolation-filters="sRGB">
<feFlood flood-opacity="0" result="BackgroundImageFix"/>
<feBlend mode="normal" in="SourceGraphic" in2="BackgroundImageFix" result="shape"/>
<feColorMatrix in="SourceAlpha" type="matrix" values="0 0 0 0 0 0 0 0 0 0 0 0 0 0 0 0 0 0 127 0" result="hardAlpha"/>
<feOffset dx="13" dy="4"/>
<feGaussianBlur stdDeviation="10"/>
<feComposite in2="hardAlpha" operator="arithmetic" k2="-1" k3="1"/>
<feColorMatrix type="matrix" values="0 0 0 0 1 0 0 0 0 1 0 0 0 0 1 0 0 0 0.6 0"/>
<feBlend mode="normal" in2="shape" result="effect1_innerShadow_90_7"/>
<feColorMatrix in="SourceAlpha" type="matrix" values="0 0 0 0 0 0 0 0 0 0 0 0 0 0 0 0 0 0 127 0" result="hardAlpha"/>
<feOffset dx="-3" dy="-4"/>
<feGaussianBlur stdDeviation="9"/>
<feComposite in2="hardAlpha" operator="arithmetic" k2="-1" k3="1"/>
<feColorMatrix type="matrix" values="0 0 0 0 1 0 0 0 0 1 0 0 0 0 1 0 0 0 0.78 0"/>
<feBlend mode="normal" in2="effect1_innerShadow_90_7" result="effect2_innerShadow_90_7"/>
</filter>
<filter id="filter5_f_90_7" x="68.3028" y="-20.6219" width="352.687" height="343.491" filterUnits="userSpaceOnUse" color-interpolation-filters="sRGB">
<feFlood flood-opacity="0" result="BackgroundImageFix"/>
<feBlend mode="normal" in="SourceGraphic" in2="BackgroundImageFix" result="shape"/>
<feGaussianBlur stdDeviation="60" result="effect1_foregroundBlur_90_7"/>
</filter>
<filter id="filter6_f_90_7" x="-82.6972" y="115.378" width="352.687" height="343.491" filterUnits="userSpaceOnUse" color-interpolation-filters="sRGB">
<feFlood flood-opacity="0" result="BackgroundImageFix"/>
<feBlend mode="normal" in="SourceGraphic" in2="BackgroundImageFix" result="shape"/>
<feGaussianBlur stdDeviation="60" result="effect1_foregroundBlur_90_7"/>
</filter>
<filter id="filter7_f_90_7" x="-38.3337" y="19.8933" width="361.4" height="389.855" filterUnits="userSpaceOnUse" color-interpolation-filters="sRGB">
<feFlood flood-opacity="0" result="BackgroundImageFix"/>
<feBlend mode="normal" in="SourceGraphic" in2="BackgroundImageFix" result="shape"/>
<feGaussianBlur stdDeviation="60" result="effect1_foregroundBlur_90_7"/>
</filter>
<filter id="filter8_d_90_7" x="93.0504" y="138.824" width="95.537" height="98.0296" filterUnits="userSpaceOnUse" color-interpolation-filters="sRGB">
<feFlood flood-opacity="0" result="BackgroundImageFix"/>
<feColorMatrix in="SourceAlpha" type="matrix" values="0 0 0 0 0 0 0 0 0 0 0 0 0 0 0 0 0 0 127 0" result="hardAlpha"/>
<feOffset dy="36"/>
<feGaussianBlur stdDeviation="12"/>
<feComposite in2="hardAlpha" operator="out"/>
<feColorMatrix type="matrix" values="0 0 0 0 0.8375 0 0 0 0 0.425729 0 0 0 0 0.47361 0 0 0 0.46 0"/>
<feBlend mode="normal" in2="BackgroundImageFix" result="effect1_dropShadow_90_7"/>
<feBlend mode="normal" in="SourceGraphic" in2="effect1_dropShadow_90_7" result="shape"/>
</filter>
<filter id="filter9_ddi_90_7" x="60.6558" y="84.0139" width="160.446" height="147.786" filterUnits="userSpaceOnUse" color-interpolation-filters="sRGB">
<feFlood flood-opacity="0" result="BackgroundImageFix"/>
<feColorMatrix in="SourceAlpha" type="matrix" values="0 0 0 0 0 0 0 0 0 0 0 0 0 0 0 0 0 0 127 0" result="hardAlpha"/>
<feOffset/>
<feGaussianBlur stdDeviation="24.5"/>
<feComposite in2="hardAlpha" operator="out"/>
<feColorMatrix type="matrix" values="0 0 0 0 0.8625 0 0 0 0 0.352188 0 0 0 0 0.411526 0 0 0 0.68 0"/>
<feBlend mode="normal" in2="BackgroundImageFix" result="effect1_dropShadow_90_7"/>
<feColorMatrix in="SourceAlpha" type="matrix" values="0 0 0 0 0 0 0 0 0 0 0 0 0 0 0 0 0 0 127 0" result="hardAlpha"/>
<feOffset/>
<feGaussianBlur stdDeviation="2"/>
<feComposite in2="hardAlpha" operator="out"/>
<feColorMatrix type="matrix" values="0 0 0 0 0.891667 0 0 0 0 0.47184 0 0 0 0 0.520657 0 0 0 0.41 0"/>
<feBlend mode="normal" in2="effect1_dropShadow_90_7" result="effect2_dropShadow_90_7"/>
<feBlend mode="normal" in="SourceGraphic" in2="effect2_dropShadow_90_7" result="shape"/>
<feColorMatrix in="SourceAlpha" type="matrix" values="0 0 0 0 0 0 0 0 0 0 0 0 0 0 0 0 0 0 127 0" result="hardAlpha"/>
<feOffset dx="4.18359" dy="-5.37891"/>
<feGaussianBlur stdDeviation="15.2402"/>
<feComposite in2="hardAlpha" operator="arithmetic" k2="-1" k3="1"/>
<feColorMatrix type="matrix" values="0 0 0 0 1 0 0 0 0 1 0 0 0 0 1 0 0 0 1 0"/>
<feBlend mode="normal" in2="shape" result="effect3_innerShadow_90_7"/>
</filter>
<filter id="filter10_f_90_7" x="169.131" y="197.846" width="68.0704" height="63.9301" filterUnits="userSpaceOnUse" color-interpolation-filters="sRGB">
<feFlood flood-opacity="0" result="BackgroundImageFix"/>
<feBlend mode="normal" in="SourceGraphic" in2="BackgroundImageFix" result="shape"/>
<feGaussianBlur stdDeviation="8" result="effect1_foregroundBlur_90_7"/>
</filter>
<radialGradient id="paint0_radial_90_7" cx="0" cy="0" r="1" gradientUnits="userSpaceOnUse" gradientTransform="translate(39.6393 65.4152) rotate(170.807) scale(65.1167 39.4584)">
<stop offset="0.408883" stop-color="#E120DA"/>
<stop offset="1" stop-color="#FFB4E1"/>
</radialGradient>
<linearGradient id="paint1_linear_90_7" x1="142.068" y1="137.579" x2="128.291" y2="170.098" gradientUnits="userSpaceOnUse">
<stop stop-color="#FFA9B3"/>
<stop offset="1" stop-color="#FFC37C"/>
</linearGradient>
<linearGradient id="paint2_linear_90_7" x1="142.52" y1="131.384" x2="124.527" y2="174" gradientUnits="userSpaceOnUse">
<stop stop-color="#FFA9B3"/>
<stop offset="1" stop-color="#FFC37C"/>
</linearGradient>
<clipPath id="clip0_90_7">
<rect x="88" y="118.225" width="105.638" height="105.638" rx="52.8189" fill="white"/>
</clipPath>
<clipPath id="clip1_90_7">
<rect x="88" y="110.83" width="105.638" height="105.638" rx="52.8189" fill="white"/>
</clipPath>
</defs>
</svg>
