<svg width="399" height="79" viewBox="0 0 399 79" fill="none" xmlns="http://www.w3.org/2000/svg">
<circle cx="146.15" cy="39.5" r="39.5" fill="#2F89CE"/>
<path d="M125.118 40.2388L134.199 43.625L137.739 55.015C137.893 55.7846 138.816 55.9385 139.432 55.4767L144.511 51.3209C144.973 50.8592 145.743 50.8592 146.358 51.3209L155.44 57.9394C156.055 58.4012 156.979 58.0933 157.133 57.3237L163.905 25.0008C164.059 24.2312 163.29 23.4616 162.52 23.7695L125.118 38.2378C124.194 38.5457 124.194 39.9309 125.118 40.2388ZM137.277 41.9319L155.132 31.0036C155.44 30.8497 155.747 31.3115 155.44 31.4654L140.817 45.1642C140.356 45.6259 139.894 46.2416 139.894 47.0112L139.432 50.7052C139.432 51.167 138.662 51.3209 138.509 50.7052L136.662 43.9328C136.2 43.1632 136.508 42.2397 137.277 41.9319Z" fill="white"/>
<circle cx="252.8" cy="39.5" r="39.5" fill="#F40000"/>
<path d="M270.008 37.3533C270.008 36.5873 269.881 35.6935 269.881 34.6721C269.753 33.6507 269.625 32.6293 269.498 31.7356C269.242 30.7141 268.859 29.9481 268.093 29.3097C267.455 28.6713 266.561 28.2883 265.667 28.1606C262.731 27.7776 258.39 27.6499 252.517 27.6499C246.644 27.6499 242.175 27.7776 239.366 28.1606C238.472 28.2883 237.579 28.6713 236.94 29.3097C236.302 29.9481 235.791 30.7141 235.536 31.7356C235.28 32.6293 235.153 33.523 235.153 34.6721C235.025 35.6935 235.025 36.5873 235.025 37.3533C235.025 38.1194 235.025 39.0131 235.025 40.2899C235.025 41.5667 235.025 42.5881 235.025 43.2265C235.025 43.9925 235.153 44.8863 235.153 45.9077C235.28 46.9291 235.408 47.9505 235.536 48.8442C235.791 49.8657 236.174 50.6317 236.94 51.2701C237.579 51.9085 238.472 52.2915 239.366 52.4192C242.303 52.8022 246.644 52.9299 252.517 52.9299C258.39 52.9299 262.859 52.8022 265.667 52.4192C266.561 52.2915 267.455 51.9085 268.093 51.2701C268.732 50.6317 269.242 49.8657 269.498 48.8442C269.753 47.9505 269.881 47.0568 269.881 45.9077C270.008 44.8863 270.008 43.9925 270.008 43.2265C270.008 42.4604 270.008 41.5667 270.008 40.2899C270.008 39.0131 270.008 37.9917 270.008 37.3533ZM259.284 41.3113L249.197 47.5675C249.069 47.6951 248.814 47.8228 248.559 47.8228C248.303 47.8228 248.176 47.8228 247.92 47.6952C247.537 47.4398 247.282 47.0568 247.282 46.5461V33.9061C247.282 33.3953 247.537 33.0123 247.92 32.757C248.303 32.5016 248.814 32.5016 249.197 32.757L259.284 39.0131C259.667 39.2685 259.922 39.6515 259.922 40.0345C259.922 40.4176 259.667 41.056 259.284 41.3113Z" fill="white"/>
<path d="M398.95 39.5C398.95 61.3153 381.265 79 359.45 79C337.635 79 319.95 61.3153 319.95 39.5C319.95 17.6848 337.635 0 359.45 0C381.265 0 398.95 17.6848 398.95 39.5Z" fill="#7289DA"/>
<path d="M373.061 21.7251H345.839C343.544 21.7251 341.675 23.5421 341.675 25.7936V52.4956C341.675 54.7471 343.544 56.5641 345.839 56.5641H368.876L367.799 52.9103L370.399 55.2606L372.857 57.4726L377.225 61.2251V25.7936C377.225 23.5421 375.356 21.7251 373.061 21.7251ZM365.219 47.5186C365.219 47.5186 364.488 46.6693 363.878 45.9188C366.54 45.1881 367.555 43.5686 367.555 43.5686C366.722 44.1018 365.93 44.4771 365.219 44.7338C364.204 45.1486 363.228 45.4251 362.274 45.5831C360.324 45.9386 358.536 45.8398 357.012 45.5633C355.854 45.3461 354.859 45.0301 354.026 44.7141C353.559 44.5363 353.051 44.3191 352.543 44.0426C352.482 44.0031 352.421 43.9833 352.36 43.9438C352.32 43.9241 352.299 43.9043 352.279 43.8846C351.913 43.6871 351.71 43.5488 351.71 43.5488C351.71 43.5488 352.685 45.1288 355.265 45.8793C354.656 46.6298 353.904 47.5186 353.904 47.5186C349.415 47.3803 347.708 44.5166 347.708 44.5166C347.708 38.1571 350.634 33.0023 350.634 33.0023C353.559 30.8693 356.342 30.9286 356.342 30.9286L356.545 31.1656C352.888 32.1926 351.202 33.7528 351.202 33.7528C351.202 33.7528 351.649 33.5158 352.401 33.1801C354.575 32.2518 356.301 31.9951 357.012 31.9358C357.134 31.9161 357.236 31.8963 357.358 31.8963C358.597 31.7383 359.998 31.6988 361.461 31.8568C363.391 32.0741 365.463 32.6271 367.576 33.7528C367.576 33.7528 365.971 32.2716 362.517 31.2446L362.802 30.9286C362.802 30.9286 365.585 30.8693 368.51 33.0023C368.51 33.0023 371.435 38.1571 371.435 44.5166C371.435 44.5166 369.709 47.3803 365.219 47.5186ZM355.773 38.2953C354.615 38.2953 353.701 39.2828 353.701 40.4876C353.701 41.6923 354.636 42.6798 355.773 42.6798C356.931 42.6798 357.845 41.6923 357.845 40.4876C357.865 39.2828 356.931 38.2953 355.773 38.2953ZM363.188 38.2953C362.03 38.2953 361.116 39.2828 361.116 40.4876C361.116 41.6923 362.05 42.6798 363.188 42.6798C364.346 42.6798 365.26 41.6923 365.26 40.4876C365.26 39.2828 364.346 38.2953 363.188 38.2953Z" fill="white"/>
<circle cx="39.5" cy="39.5" r="39.5" fill="#7294C7"/>
<path d="M58.8672 49.6026C58.8672 49.4387 58.7032 49.4387 58.7032 49.2747C58.0473 47.963 56.5716 46.3233 54.604 44.5196C53.6201 43.6997 53.1282 43.0438 52.8003 42.7159C52.3084 42.06 52.3084 41.5681 52.4724 40.9122C52.6363 40.4203 53.2922 39.6005 54.44 38.1247C55.0959 37.3049 55.4238 36.813 55.9157 36.3211C58.3752 33.0417 59.523 30.91 59.1951 29.9262L59.0312 29.7623C58.8672 29.5983 58.7032 29.4343 58.3752 29.4343C58.0473 29.2704 57.5554 29.2704 57.0635 29.4343H50.8327C50.6687 29.4343 50.6687 29.4343 50.3407 29.4343C50.1767 29.4343 50.0128 29.4343 50.0128 29.4343H49.8488H49.6848L49.5209 29.5983C49.3569 29.7623 49.3569 29.7622 49.3569 29.9262C48.701 31.7299 47.8812 33.2056 47.0613 34.8453C46.5694 35.6652 46.0775 36.485 45.5856 37.1409C45.0937 37.7968 44.7657 38.2887 44.4378 38.6166C44.1098 38.9446 43.7819 39.1086 43.6179 39.4365C43.454 39.6005 43.126 39.7644 43.126 39.6005C42.9621 39.6005 42.7981 39.6005 42.7981 39.4365C42.6341 39.2725 42.4701 39.1086 42.3062 38.9446C42.1422 38.7806 42.1422 38.4527 41.9782 38.1247C41.9782 37.7968 41.9782 37.4688 41.9782 37.3049C41.9782 37.1409 41.9782 36.649 41.9782 36.3211C41.9782 35.8292 41.9782 35.5012 41.9782 35.3372C41.9782 34.8453 41.9782 34.1895 41.9782 33.5336C41.9782 32.8777 41.9782 32.3858 41.9782 32.0578C41.9782 31.7299 41.9782 31.238 41.9782 30.91C41.9782 30.4181 41.9782 30.0902 41.9782 29.9262C41.9782 29.7622 41.8143 29.4343 41.8143 29.2703C41.6503 29.1064 41.4863 28.9424 41.3223 28.7784C41.1584 28.6145 40.8304 28.6145 40.6665 28.4505C39.8466 28.2865 38.8628 28.1226 37.715 28.1226C35.0915 28.1226 33.2878 28.2865 32.6319 28.6145C32.304 28.7784 31.9761 28.9424 31.8121 29.2703C31.4842 29.5983 31.4841 29.7623 31.6481 29.7623C32.468 29.9262 33.1239 30.2542 33.4518 30.7461L33.6158 31.074C33.7797 31.238 33.7797 31.5659 33.9437 32.0578C34.1077 32.5497 34.1077 33.0417 34.1077 33.6975C34.1077 34.6814 34.1077 35.6652 34.1077 36.3211C34.1077 37.1409 33.9437 37.6328 33.9437 38.1247C33.9437 38.6166 33.7797 38.9446 33.6158 39.1086C33.4518 39.4365 33.4518 39.6005 33.2878 39.6005C33.2878 39.6005 33.2878 39.7644 33.1238 39.7644C32.9599 39.7644 32.7959 39.9284 32.468 39.9284C32.304 39.9284 31.9761 39.7644 31.8121 39.6005C31.4842 39.4365 31.1562 39.1086 30.9922 38.7806C30.6643 38.4527 30.3364 37.9608 30.0084 37.3049C29.6805 36.649 29.1885 35.9931 28.8606 35.0093L28.5327 34.3534C28.3687 34.0255 28.0408 33.3696 27.7128 32.5498C27.3849 31.7299 27.0569 31.074 26.729 30.2542C26.565 29.9262 26.4011 29.7623 26.2371 29.5983H26.0731C26.0731 29.5983 25.9091 29.4343 25.7452 29.4343C25.5812 29.4343 25.4173 29.2703 25.2533 29.2703H19.3503C18.6945 29.2703 18.3665 29.4343 18.2026 29.5983L18.0386 29.7623C18.0386 29.7623 18.0386 29.9262 18.0386 30.0902C18.0386 30.2542 18.0386 30.4181 18.2026 30.7461C19.0224 32.7137 20.0062 34.6814 20.99 36.649C21.9739 38.4527 22.9577 40.0924 23.6136 41.2402C24.4334 42.388 25.0893 43.5358 25.9092 44.5196C26.729 45.5034 27.2209 46.1593 27.3849 46.4872C27.7128 46.8152 27.8768 46.9791 28.0407 47.1431L28.5327 47.635C28.8606 47.963 29.3525 48.4549 30.0084 48.9468C30.6643 49.4387 31.4841 49.9306 32.304 50.4225C33.1238 50.9144 34.1077 51.2424 35.0915 51.5703C36.2393 51.8983 37.2231 52.0622 38.2069 51.8982H40.6665C41.1584 51.8982 41.4863 51.7343 41.8143 51.4063L41.9782 51.2424C41.9782 51.0784 42.1422 51.0784 42.1422 50.9144C42.1422 50.7504 42.1422 50.5865 42.1422 50.2585C42.1422 49.6027 42.1422 49.1108 42.3062 48.6188C42.4701 48.1269 42.4702 47.799 42.6341 47.4711C42.7981 47.1431 42.9621 46.9791 43.126 46.8152C43.29 46.6512 43.454 46.4872 43.454 46.4872H43.6179C43.9459 46.3233 44.4378 46.4872 44.7657 46.8152C45.2576 47.1431 45.7495 47.635 46.0775 48.1269C46.4054 48.6188 46.8974 49.1108 47.5532 49.7666C48.2091 50.4225 48.701 50.9144 49.029 51.0784L49.5209 51.4063C49.8488 51.5703 50.1768 51.7343 50.6687 51.8982C51.1606 52.0622 51.4885 52.0622 51.8164 52.0622L57.3915 51.8982C57.8834 51.8982 58.3753 51.7343 58.7032 51.5703C59.0312 51.4063 59.1951 51.2424 59.1951 50.9144C59.1951 50.7504 59.1951 50.4225 59.1951 50.2585C58.8672 49.9306 58.8672 49.7666 58.8672 49.6026Z" fill="white"/>
</svg>
